<svg width="43" height="78" viewBox="0 0 43 78" fill="none" xmlns="http://www.w3.org/2000/svg">
<path d="M36.6765 0H6.32353C2.83294 0.00314516 0.00316176 2.81806 0 6.29032V71.7097C0.00316176 75.1819 2.83294 77.9969 6.32353 78H36.6765C40.1671 77.9969 42.9968 75.1819 43 71.7097V6.29032C42.9968 2.81806 40.1671 0.00314516 36.6765 0ZM30.0747 2.51613L29.3159 6.29032H13.6841L12.9253 2.51613H30.0747ZM40.4706 71.7097C40.469 73.7933 38.7711 75.4823 36.6765 75.4839H6.32353C4.22886 75.4823 2.53099 73.7933 2.52941 71.7097V6.29032C2.53099 4.20665 4.22886 2.5177 6.32353 2.51613H10.3453L11.4061 7.79528C11.5246 8.38343 12.0447 8.80645 12.6471 8.80645H30.3529C30.9553 8.80645 31.4754 8.38343 31.5939 7.79528L32.6547 2.51613H36.6765C38.7711 2.5177 40.469 4.20665 40.4706 6.29032V71.7097Z" fill="#A3AAB5"/>
<path d="M13.9118 70.4516H6.32354C5.62479 70.4516 5.05884 71.0146 5.05884 71.7097C5.05884 72.4048 5.62479 72.9677 6.32354 72.9677H13.9118C14.6105 72.9677 15.1765 72.4048 15.1765 71.7097C15.1765 71.0146 14.6105 70.4516 13.9118 70.4516Z" fill="#A3AAB5"/>
<path d="M18.9706 70.4516H17.7059C17.0071 70.4516 16.4412 71.0146 16.4412 71.7097C16.4412 72.4048 17.0071 72.9677 17.7059 72.9677H18.9706C19.6693 72.9677 20.2353 72.4048 20.2353 71.7097C20.2353 71.0146 19.6693 70.4516 18.9706 70.4516Z" fill="#A3AAB5"/>
<path d="M8.77393 22.7364V18.9779C8.77393 18.4322 9.21973 17.9888 9.7683 17.9888H13.5466C14.0952 17.9888 14.541 18.4322 14.541 18.9779C14.541 19.5236 14.0952 19.9671 13.5466 19.9671H10.7627V22.7364C10.7627 23.2821 10.3169 23.7255 9.7683 23.7255C9.21973 23.7255 8.77393 23.2836 8.77393 22.7364ZM33.2318 17.9903H29.4534C28.9049 17.9903 28.4591 18.4338 28.4591 18.9795C28.4591 19.5252 28.9049 19.9686 29.4534 19.9686H32.2374V22.7379C32.2374 23.2836 32.6832 23.7271 33.2318 23.7271C33.7803 23.7271 34.2261 23.2836 34.2261 22.7379V18.9795C34.2261 18.4322 33.7803 17.9903 33.2318 17.9903ZM13.5466 41.3306H10.7627V38.5613C10.7627 38.0156 10.3169 37.5721 9.7683 37.5721C9.21973 37.5721 8.77393 38.0156 8.77393 38.5613V42.3197C8.77393 42.8654 9.21973 43.3089 9.7683 43.3089H13.5466C14.0952 43.3089 14.541 42.8654 14.541 42.3197C14.541 41.774 14.0952 41.3306 13.5466 41.3306ZM33.2318 37.5721C32.6832 37.5721 32.2374 38.0156 32.2374 38.5613V41.3306H29.4534C28.9049 41.3306 28.4591 41.774 28.4591 42.3197C28.4591 42.8654 28.9049 43.3089 29.4534 43.3089H33.2318C33.7803 43.3089 34.2261 42.8654 34.2261 42.3197V38.5613C34.2261 38.014 33.7803 37.5721 33.2318 37.5721ZM20.6305 22.8606V28.794C20.6305 29.3396 20.1847 29.7831 19.6362 29.7831H13.6699C13.1214 29.7831 12.6755 29.3396 12.6755 28.794V22.8606C12.6755 22.3149 13.1214 21.8715 13.6699 21.8715H19.6346C20.1847 21.8715 20.6305 22.3149 20.6305 22.8606ZM18.6418 23.8498H14.6643V27.8064H18.6418V23.8498ZM29.8265 29.7831H23.8619C23.3133 29.7831 22.8675 29.3396 22.8675 28.794V22.8606C22.8675 22.3149 23.3133 21.8715 23.8619 21.8715H29.8265C30.3751 21.8715 30.8209 22.3149 30.8209 22.8606V28.794C30.8209 29.3412 30.3751 29.7831 29.8265 29.7831ZM28.8322 23.8498H24.8547V27.8064H28.8322V23.8498ZM20.6305 32.9975V38.9308C20.6305 39.4765 20.1847 39.92 19.6362 39.92H13.6699C13.1214 39.92 12.6755 39.4765 12.6755 38.9308V32.9975C12.6755 32.4518 13.1214 32.0083 13.6699 32.0083H19.6346C20.1847 32.0083 20.6305 32.4518 20.6305 32.9975ZM18.6418 33.9866H14.6643V37.9432H18.6418V33.9866ZM28.546 38.6477H25.1408C24.5922 38.6477 24.1464 38.2043 24.1464 37.6586V34.2713C24.1464 33.7256 24.5922 33.2821 25.1408 33.2821H28.546C29.0946 33.2821 29.5404 33.7256 29.5404 34.2713V37.6586C29.5404 38.2043 29.0962 38.6477 28.546 38.6477ZM27.5516 35.2604H26.1352V36.6694H27.5516V35.2604Z" fill="#26B1FF"/>
</svg>
