<svg width="65" height="80" viewBox="0 0 65 80" fill="none" xmlns="http://www.w3.org/2000/svg">
<g clip-path="url(#clip0)">
<path d="M59.7017 17.7888H45.1783C45.1832 18.4565 45.1996 19.1243 45.2571 19.7872H54.4265L53.8204 22.7864H45.4296C45.4969 23.4541 45.5823 24.1202 45.671 24.7847H54.6482C55.1294 24.7847 55.5449 24.4484 55.6385 23.9805L56.486 19.7872H59.6985C61.372 19.7888 62.727 21.1308 62.7303 22.7864V74.7587C62.7286 76.4143 61.372 77.7547 59.6985 77.7579H35.4538C33.7802 77.7563 32.4253 76.4143 32.422 74.7587V41.0479C32.128 40.892 31.8439 40.7246 31.5696 40.5605C31.1738 40.3249 30.7846 40.0715 30.4019 39.8115V74.7587C30.4052 77.5175 32.6651 79.7531 35.4538 79.7563H59.7017C62.4905 79.7531 64.7504 77.5175 64.7537 74.7587V22.7864C64.7504 20.0276 62.4905 17.792 59.7017 17.7888Z" fill="#A3AAB5"/>
<path d="M59.7017 80H35.4538C32.5353 79.9968 30.1588 77.6458 30.1555 74.7587V39.3501L30.5415 39.6117C30.9685 39.9009 31.3463 40.143 31.6961 40.3526C31.9424 40.4988 32.2348 40.671 32.5386 40.8335L32.6684 40.9017V74.7587C32.67 76.2762 33.9199 77.5126 35.4538 77.5142H59.7017C61.2357 77.5126 62.4856 76.2762 62.4872 74.7587V22.7864C62.4856 21.2689 61.2357 20.0341 59.7017 20.0309H56.6913L55.8832 24.0292C55.7666 24.6076 55.2476 25.0284 54.6515 25.0284H45.4575L45.4296 24.8172C45.3491 24.2112 45.2571 23.5077 45.1865 22.8107L45.1602 22.5426H53.6217L54.1292 20.0309H45.0338L45.014 19.8083C44.95 19.0755 44.9385 18.3444 44.9336 17.7904L44.9319 17.5451H59.7034C62.6219 17.5483 64.9984 19.8993 65.0017 22.7864V74.7587C64.9967 77.6458 62.6202 79.9968 59.7017 80ZM30.6483 40.2713V74.7604C30.6515 77.3794 32.8063 79.511 35.4538 79.5142H59.7017C62.3476 79.511 64.504 77.3794 64.5073 74.7604V22.7864C64.504 20.169 62.3492 18.0357 59.7017 18.0325H45.4279C45.4329 18.4777 45.446 19.0057 45.4854 19.5435H54.7287L54.0241 23.0301H45.7038C45.7597 23.5516 45.827 24.0715 45.8894 24.541H54.6498C55.0128 24.541 55.3281 24.2859 55.3987 23.9334L56.2856 19.5435H59.7001C61.5051 19.5451 62.975 20.9992 62.9783 22.7847V74.7571C62.9766 76.5427 61.5067 77.9968 59.7017 78H35.4538C33.6489 77.9984 32.1789 76.5443 32.1757 74.7587V41.1925C31.9096 41.0463 31.6583 40.8985 31.4415 40.7701C31.1935 40.6223 30.9307 40.4565 30.6483 40.2713Z" fill="#A3AAB5"/>
<path d="M41.5158 73.7595H35.4538C34.8954 73.7595 34.4438 74.2063 34.4438 74.7587C34.4438 75.3111 34.8954 75.7579 35.4538 75.7579H41.5158C42.0742 75.7579 42.5259 75.3111 42.5259 74.7587C42.5259 74.2063 42.0742 73.7595 41.5158 73.7595Z" fill="#A3AAB5"/>
<path d="M41.5158 76.0033H35.4539C34.7608 76.0033 34.1974 75.446 34.1974 74.7604C34.1974 74.0747 34.7608 73.5175 35.4539 73.5175H41.5158C42.2089 73.5175 42.7722 74.0747 42.7722 74.7604C42.7722 75.446 42.2089 76.0033 41.5158 76.0033ZM35.4539 74.0032C35.0334 74.0032 34.6902 74.3428 34.6902 74.7587C34.6902 75.1763 35.0334 75.5142 35.4539 75.5142H41.5158C41.9363 75.5142 42.2795 75.1747 42.2795 74.7587C42.2795 74.3428 41.9363 74.0032 41.5158 74.0032H35.4539Z" fill="#A3AAB5"/>
<path d="M45.5577 73.7595H44.5476C43.9892 73.7595 43.5375 74.2063 43.5375 74.7587C43.5375 75.3111 43.9892 75.7579 44.5476 75.7579H45.5577C46.1161 75.7579 46.5677 75.3111 46.5677 74.7587C46.5677 74.2063 46.1144 73.7595 45.5577 73.7595Z" fill="#A3AAB5"/>
<path d="M45.5577 76.0033H44.5476C43.8545 76.0033 43.2912 75.446 43.2912 74.7604C43.2912 74.0747 43.8545 73.5175 44.5476 73.5175H45.5577C46.2507 73.5175 46.8141 74.0747 46.8141 74.7604C46.8141 75.446 46.2507 76.0033 45.5577 76.0033ZM44.5476 74.0032C44.1272 74.0032 43.7839 74.3428 43.7839 74.7587C43.7839 75.1763 44.1272 75.5142 44.5476 75.5142H45.5577C45.9781 75.5142 46.3214 75.1747 46.3214 74.7587C46.3214 74.3428 45.9781 74.0032 45.5577 74.0032H44.5476Z" fill="#A3AAB5"/>
<path d="M56.3776 50.4143C55.0226 49.0739 53.4082 48.0812 51.6475 47.4801C53.533 46.195 54.7713 44.0455 54.7713 41.615C54.7713 37.6897 51.5441 34.4972 47.5761 34.4972C43.6082 34.4972 40.3809 37.6897 40.3809 41.615C40.3809 44.0455 41.6192 46.1966 43.5047 47.4801C41.7441 48.0812 40.1313 49.0739 38.7747 50.4143C36.4244 52.7392 35.1302 55.831 35.1302 59.1194H37.0748C37.0748 53.3907 41.7851 48.7311 47.5761 48.7311C53.3671 48.7311 58.0774 53.3907 58.0774 59.1194H60.022C60.0236 55.831 58.7294 52.7392 56.3776 50.4143ZM47.5778 46.8075C44.6823 46.8075 42.3271 44.4777 42.3271 41.6133C42.3271 38.749 44.6823 36.4192 47.5778 36.4192C50.4732 36.4192 52.8284 38.749 52.8284 41.6133C52.8284 44.4777 50.4732 46.8075 47.5778 46.8075Z" fill="#A3AAB5"/>
<path d="M60.27 59.3631H57.8327V59.1194C57.8327 53.5256 53.2324 48.9748 47.5778 48.9748C41.9231 48.9748 37.3228 53.5256 37.3228 59.1194V59.3631H34.8856V59.1194C34.8856 55.766 36.206 52.6125 38.6022 50.2421C39.8701 48.9878 41.345 48.0357 42.9906 47.407C41.1955 46.013 40.1362 43.8814 40.1362 41.615C40.1362 37.5565 43.4751 34.2535 47.5778 34.2535C51.6804 34.2535 55.0193 37.5548 55.0193 41.6133C55.0193 43.8798 53.96 46.0114 52.1649 47.4054C53.8106 48.0341 55.2854 48.9862 56.5533 50.2405C58.9512 52.6125 60.27 55.7644 60.27 59.1178V59.3631ZM58.3221 58.8757H59.774C59.7116 55.7433 58.4486 52.8075 56.2035 50.5865C54.8781 49.2754 53.3179 48.3071 51.5671 47.7108L51.1056 47.5532L51.508 47.2803C53.3967 45.9935 54.525 43.8749 54.525 41.615C54.525 37.8245 51.4078 34.7409 47.5761 34.7409C43.7445 34.7409 40.6273 37.8245 40.6273 41.615C40.6273 43.8749 41.7556 45.9919 43.6443 47.2803L44.0467 47.5532L43.5852 47.7108C41.8344 48.3087 40.2758 49.2754 38.9504 50.5865C36.7053 52.8091 35.4423 55.7449 35.3799 58.8757H36.8318C36.9632 53.1259 41.7326 48.4874 47.5761 48.4874C53.4213 48.4874 58.1908 53.1259 58.3221 58.8757ZM47.5778 47.0512C44.5476 47.0512 42.0808 44.6125 42.0808 41.6133C42.0808 38.6141 44.546 36.1755 47.5778 36.1755C50.6096 36.1755 53.0748 38.6141 53.0748 41.6133C53.0748 44.6125 50.6096 47.0512 47.5778 47.0512ZM47.5778 36.6645C44.8186 36.6645 42.5735 38.8855 42.5735 41.615C42.5735 44.3444 44.8186 46.5654 47.5778 46.5654C50.337 46.5654 52.5821 44.3444 52.5821 41.615C52.5821 38.8855 50.337 36.6645 47.5778 36.6645Z" fill="#A3AAB5"/>
<path d="M37.96 0.243698H6.21963C2.92504 0.243698 0.246338 2.89358 0.246338 6.15271V26.411C0.246338 29.6686 2.92504 32.3201 6.21963 32.3201H14.8798C15.3512 32.3201 15.7339 31.9415 15.7339 31.4752C15.7339 31.0089 15.3512 30.6304 14.8798 30.6304H6.21963C3.86776 30.6304 1.95276 28.7376 1.95276 26.4094V6.15271C1.95276 3.82615 3.86612 1.93176 6.21963 1.93176H37.9617C40.3135 1.93176 42.2285 3.82453 42.2285 6.15271V26.411C42.2285 28.7376 40.3152 30.632 37.9617 30.632H31.7207C31.2493 30.632 30.8666 31.0106 30.8666 31.4768V36.0227L25.6686 30.8806C25.5092 30.723 25.2908 30.6336 25.0658 30.6336H23.0293C22.5579 30.6336 22.1752 31.0122 22.1752 31.4785C22.1752 31.9448 22.5579 32.3233 23.0293 32.3233H24.7127L31.1179 38.6596C31.2805 38.8205 31.499 38.9066 31.7207 38.9066C31.8307 38.9066 31.9408 38.8854 32.0475 38.8416C32.3661 38.7116 32.5747 38.4029 32.5747 38.0617V32.3217H37.9617C41.2546 32.3217 43.935 29.6718 43.935 26.4127V6.15271C43.9333 2.89358 41.2546 0.243698 37.96 0.243698Z" fill="#A3AAB5"/>
<path d="M31.7207 39.147C31.4267 39.147 31.1508 39.0333 30.9422 38.8286L24.6092 32.5638H23.0276C22.4216 32.5638 21.9273 32.0764 21.9273 31.4752C21.9273 30.8741 22.42 30.3867 23.0276 30.3867H25.0642C25.3582 30.3867 25.6341 30.5004 25.841 30.7051L30.6187 35.4314V31.4736C30.6187 30.8741 31.1114 30.3851 31.7191 30.3851H37.9601C40.1772 30.3851 41.9806 28.6011 41.9806 26.4078V6.15272C41.9806 3.95938 40.1772 2.17547 37.9601 2.17547H6.21965C4.00245 2.17547 2.19913 3.95938 2.19913 6.15272V26.411C2.19913 28.6044 4.00245 30.3883 6.21965 30.3883H14.8799C15.4859 30.3883 15.9802 30.8757 15.9802 31.4769C15.9802 32.078 15.4875 32.5654 14.8799 32.5654H6.21965C2.79038 32.5621 0 29.8034 0 26.411V6.15272C0 2.76036 2.79038 0 6.21965 0H37.9617C41.3893 0 44.1797 2.76036 44.1797 6.15272V26.411C44.1797 29.8034 41.3893 32.5638 37.9601 32.5638H32.8194V38.0601C32.8194 38.502 32.5534 38.8968 32.1411 39.0658C32.0065 39.1194 31.8652 39.147 31.7207 39.147ZM23.0293 30.8741C22.6942 30.8741 22.4216 31.1438 22.4216 31.4752C22.4216 31.8067 22.6942 32.0764 23.0293 32.0764H24.8145L31.292 38.4842C31.4628 38.6531 31.7289 38.7067 31.9539 38.6141C32.1806 38.5215 32.3284 38.3038 32.3284 38.0601V32.0764H37.9617C41.12 32.0764 43.6886 29.5353 43.6886 26.411V6.15272C43.687 3.02843 41.1183 0.487409 37.9601 0.487409H6.21965C3.06137 0.487409 0.49271 3.02843 0.49271 6.15272V26.411C0.49271 29.5353 3.06137 32.0764 6.21965 32.0764H14.8799C15.2149 32.0764 15.4875 31.8067 15.4875 31.4752C15.4875 31.1438 15.2149 30.8741 14.8799 30.8741H6.21965C3.73146 30.8741 1.70642 28.8708 1.70642 26.4094V6.15272C1.70642 3.69131 3.73146 1.68806 6.21965 1.68806H37.9617C40.4499 1.68806 42.4749 3.69131 42.4749 6.15272V26.411C42.4749 28.8725 40.4499 30.8757 37.9617 30.8757H31.7207C31.3857 30.8757 31.113 31.1454 31.113 31.4769V36.6109L25.4928 31.0512C25.3779 30.9375 25.2251 30.8757 25.0642 30.8757H23.0293V30.8741Z" fill="#A3AAB5"/>
<path d="M19.2124 30.8773C19.0531 30.7197 18.833 30.6304 18.6097 30.6304C18.3847 30.6304 18.1646 30.7214 18.0069 30.8773C17.8476 31.0349 17.7573 31.2526 17.7573 31.4736C17.7573 31.6946 17.8493 31.9139 18.0069 32.0699C18.1662 32.2275 18.3863 32.3168 18.6097 32.3168C18.8347 32.3168 19.0548 32.2258 19.2124 32.0699C19.3717 31.9123 19.4621 31.6946 19.4621 31.4736C19.4621 31.2526 19.3701 31.0349 19.2124 30.8773Z" fill="#A3AAB5"/>
<path d="M18.608 32.5621C18.319 32.5621 18.0348 32.4452 17.8312 32.2437C17.6259 32.0406 17.5093 31.7612 17.5093 31.4752C17.5093 31.1893 17.6259 30.9082 17.8312 30.7067C18.0365 30.5037 18.319 30.3883 18.608 30.3883C18.8971 30.3883 19.1812 30.5053 19.3849 30.7067C19.5902 30.9098 19.7068 31.1893 19.7068 31.4752C19.7068 31.7612 19.5885 32.0422 19.3849 32.2437C19.1812 32.4468 18.8987 32.5621 18.608 32.5621ZM18.608 30.8741C18.4487 30.8741 18.2927 30.9391 18.1794 31.0496C18.066 31.1617 18.002 31.316 18.002 31.4736C18.002 31.6312 18.066 31.7855 18.1794 31.8976C18.2927 32.0097 18.4487 32.0731 18.608 32.0731C18.7673 32.0731 18.9234 32.0097 19.0367 31.8976C19.15 31.7855 19.2141 31.6312 19.2141 31.4736C19.2141 31.316 19.1484 31.1617 19.0367 31.0496C18.925 30.9391 18.769 30.8741 18.608 30.8741Z" fill="#A3AAB5"/>
<path d="M38.8568 7.11453C38.5973 6.96181 38.277 6.95694 38.0126 7.09991L29.7186 11.5938V11.2413C29.7186 9.08691 27.9465 7.33387 25.7687 7.33387H8.75379C6.57601 7.33387 4.80389 9.08691 4.80389 11.2413V21.3192C4.80389 23.4736 6.57601 25.2266 8.75379 25.2266H25.7687C27.9465 25.2266 29.7186 23.4736 29.7186 21.3192V20.9667L38.0126 25.4606C38.1407 25.5304 38.2819 25.5646 38.4232 25.5646C38.5743 25.5646 38.7237 25.5256 38.8584 25.446C39.1179 25.2932 39.2772 25.0187 39.2772 24.7197V7.84077C39.2756 7.54183 39.1162 7.26563 38.8568 7.11453ZM28.0122 13.0203V19.5434V21.3209C28.0122 22.5443 27.0054 23.5402 25.7687 23.5402H8.75379C7.51709 23.5402 6.51031 22.5443 6.51031 21.3209V21.1779H12.9484C13.4198 21.1779 13.8024 20.7993 13.8024 20.333C13.8024 19.8668 13.4198 19.4882 12.9484 19.4882H6.51031V11.2413C6.51031 10.0179 7.51709 9.02192 8.75379 9.02192H25.7687C27.0054 9.02192 28.0122 10.0179 28.0122 11.2413V13.0203ZM37.5691 23.2965L29.7186 19.0414V13.5175L37.5691 9.26238V23.2965Z" fill="#26B1FF"/>
<path d="M38.4232 25.8099C38.2392 25.8099 38.0569 25.7644 37.8943 25.6767L29.965 21.3794C29.9338 23.6426 28.0631 25.472 25.7687 25.472H8.75381C6.43971 25.472 4.55756 23.6101 4.55756 21.3209V11.2413C4.55756 8.95207 6.43971 7.09017 8.75381 7.09017H25.7687C28.0631 7.09017 29.9338 8.9212 29.965 11.1828L37.8943 6.88546C38.2343 6.70187 38.6515 6.70837 38.9832 6.90333C39.315 7.09829 39.5219 7.45735 39.5219 7.83915V24.7214C39.5219 25.1032 39.315 25.4622 38.9832 25.6572C38.8141 25.7579 38.6203 25.8099 38.4232 25.8099ZM29.4723 20.5573L38.1309 25.2494C38.3148 25.3485 38.5513 25.3452 38.732 25.2396C38.9159 25.1324 39.0292 24.9342 39.0292 24.723V7.84078C39.0292 7.62957 38.9159 7.43136 38.732 7.32413C38.548 7.2169 38.3181 7.21202 38.1309 7.31438L29.4723 12.0065V11.2429C29.4723 9.22177 27.8102 7.5792 25.7687 7.5792H8.75381C6.7107 7.5792 5.05027 9.22339 5.05027 11.2429V21.3209C5.05027 23.342 6.71234 24.9846 8.75381 24.9846H25.7687C27.8118 24.9846 29.4723 23.3404 29.4723 21.3209V20.5573ZM25.7687 23.7839H8.75381C7.38079 23.7839 6.26398 22.6791 6.26398 21.3209V20.9342H12.9484C13.2835 20.9342 13.5561 20.6645 13.5561 20.3331C13.5561 20.0016 13.2835 19.7319 12.9484 19.7319H6.26398V11.2413C6.26398 9.88302 7.38079 8.77823 8.75381 8.77823H25.7687C27.1418 8.77823 28.2586 9.88302 28.2586 11.2413V21.3193C28.2586 22.6791 27.1418 23.7839 25.7687 23.7839ZM6.75997 21.42C6.81253 22.463 7.68791 23.2965 8.75545 23.2965H25.7704C26.8724 23.2965 27.7675 22.4094 27.7675 21.3209V11.2413C27.7675 10.1511 26.8708 9.26564 25.7704 9.26564H8.75381C7.65178 9.26564 6.75669 10.1527 6.75669 11.2413V19.2445H12.9484C13.5545 19.2445 14.0488 19.7319 14.0488 20.3331C14.0488 20.9342 13.5561 21.4216 12.9484 21.4216H6.75997V21.42ZM37.8155 23.7092L29.4723 19.1877V13.3745L37.8155 8.85296V23.7092ZM29.965 18.8985L37.3228 22.8855V9.67668L29.965 13.6637V18.8985Z" fill="#26B1FF"/>
<path d="M15.9145 19.4882H15.9063C15.435 19.4882 15.0572 19.8668 15.0572 20.3331C15.0572 20.7993 15.4432 21.1779 15.9145 21.1779C16.3859 21.1779 16.7686 20.7993 16.7686 20.3331C16.7669 19.8668 16.3859 19.4882 15.9145 19.4882Z" fill="#26B1FF"/>
<path d="M15.9146 21.42C15.3052 21.42 14.8109 20.9326 14.8109 20.3314C14.8109 19.7303 15.302 19.2429 15.9063 19.2429H15.9146C16.5206 19.2429 17.0149 19.7303 17.0149 20.3314C17.0149 20.9326 16.5206 21.42 15.9146 21.42ZM15.9063 19.7319C15.5746 19.7319 15.3036 20.0016 15.3036 20.3331C15.3036 20.6645 15.5779 20.9342 15.9146 20.9342C16.2496 20.9342 16.5222 20.6645 16.5222 20.3331C16.5222 20.0016 16.2496 19.7319 15.9146 19.7319H15.9063Z" fill="#26B1FF"/>
</g>
<defs>
<clipPath id="clip0">
<rect width="65" height="80" fill="white"/>
</clipPath>
</defs>
</svg>
