<svg width="55" height="85" viewBox="0 0 55 85" fill="none" xmlns="http://www.w3.org/2000/svg">
<g clip-path="url(#clip0)">
<path d="M23.8017 47.0023C24.6069 47.0023 25.2586 46.3449 25.2586 45.5364C25.2586 44.7279 24.6069 44.0705 23.8017 44.0705H18.819C18.0138 44.0705 17.3621 44.7263 17.3621 45.5364C17.3621 46.3466 18.0138 47.0023 18.819 47.0023H23.8017Z" fill="#A3AAB5"/>
<path d="M32.043 77.8104V73.6268V70.6933V14.3078V11.3759V7.19236V4.25886V1.46648C32.043 1.01159 31.8319 0.581614 31.4738 0.304368C31.1141 0.0271223 30.6472 -0.0675066 30.21 0.0503645L1.08235 7.86638C0.443828 8.03738 0 8.61843 0 9.28249V14.0189C0 14.8291 0.651717 15.4848 1.45688 15.4848C2.26204 15.4848 2.91375 14.8274 2.91375 14.0189V10.4097L29.1276 3.37566V81.745L2.9154 76.4707V18.9629C2.9154 18.1527 2.26369 17.4969 1.45853 17.4969C0.653367 17.4969 0.00164992 18.1527 0.00164992 18.9629V77.6726C0.00164992 78.3716 0.491675 78.9742 1.17309 79.1103L30.3024 84.9723C30.3964 84.9906 30.4921 85.0006 30.5878 85.0006C30.9211 85.0006 31.2494 84.8843 31.5118 84.6685C31.85 84.3896 32.0447 83.9746 32.0447 83.5346V80.7439L32.043 77.8104Z" fill="#26B1FF"/>
<path d="M53.5415 4.2583H34.6087V7.1918H52.0846V77.8115H50.0057C49.2005 77.8115 48.5488 78.4673 48.5488 79.2775C48.5488 80.0876 49.2005 80.7434 50.0057 80.7434H53.5415C54.3466 80.7434 54.9983 80.0859 54.9983 79.2775V5.72422C55 4.91406 54.3466 4.2583 53.5415 4.2583Z" fill="#A3AAB5"/>
<path d="M45.475 80.7434C46.2802 80.7434 46.9319 80.0876 46.9319 79.2774C46.9319 78.4673 46.2802 77.8115 45.475 77.8115H34.6103V80.745H45.475V80.7434Z" fill="#A3AAB5"/>
<path d="M45.0114 14.3072V70.6928H34.6087V73.6263H46.4683C47.2734 73.6263 47.9252 72.9705 47.9252 72.1604V12.8413C47.9252 12.0312 47.2734 11.3754 46.4683 11.3754H34.6087V14.3089H45.0114V14.3072Z" fill="#A3AAB5"/>
</g>
<defs>
<clipPath id="clip0">
<rect width="55" height="85" fill="white"/>
</clipPath>
</defs>
</svg>
