<svg width="35" height="56" viewBox="0 0 35 56" fill="none" xmlns="http://www.w3.org/2000/svg">
<path d="M16.7453 27.0703L29.6297 14.3828C30.1438 13.8687 30.975 13.8687 31.4891 14.3828L32.2656 15.1594C32.7797 15.6734 32.7797 16.5047 32.2656 17.0187L21.0766 28L32.2547 38.9812C32.7688 39.4953 32.7688 40.3266 32.2547 40.8406L31.4781 41.6172C30.9641 42.1312 30.1328 42.1312 29.6188 41.6172L16.7344 28.9297C16.2313 28.4156 16.2313 27.5844 16.7453 27.0703ZM2.74532 28.9297L15.6297 41.6172C16.1438 42.1312 16.975 42.1312 17.4891 41.6172L18.2656 40.8406C18.7797 40.3266 18.7797 39.4953 18.2656 38.9812L7.07657 28L18.2547 17.0187C18.7688 16.5047 18.7688 15.6734 18.2547 15.1594L17.4781 14.3828C16.9641 13.8687 16.1328 13.8687 15.6188 14.3828L2.73439 27.0703C2.23126 27.5844 2.23126 28.4156 2.74532 28.9297Z" fill="#EDF0F6"/>
</svg>
