<svg width="52" height="77" viewBox="0 0 52 77" fill="none" xmlns="http://www.w3.org/2000/svg">
<path d="M27.7961 74.9865C27.6757 74.8251 27.6278 74.6652 27.6325 74.5161H6.17486C4.12943 74.5146 2.47149 72.8473 2.46994 70.7903V6.20968C2.47149 4.15272 4.12943 2.48542 6.17486 2.48387H10.1021L11.1379 7.69534C11.2537 8.27595 11.7616 8.69355 12.3497 8.69355H29.6393C30.2275 8.69355 30.7353 8.27595 30.8511 7.69534L31.887 2.48387H35.8142C37.8596 2.48542 39.5175 4.15272 39.5191 6.20968V48.1312C40.2848 48.6544 41.1369 49.0285 41.989 49.4042V6.20968C41.9859 2.78194 39.2227 0.00310484 35.8142 0H6.17486C2.76634 0.00310484 0.00308743 2.78194 0 6.20968V70.7903C0.00308743 74.2181 2.76634 76.9969 6.17486 77H29.8601C29.0944 76.4349 28.392 75.7845 27.7961 74.9865ZM29.3676 2.48387L28.6266 6.20968H13.3624L12.6214 2.48387H29.3676Z" fill="#A3AAB5"/>
<path d="M13.5847 69.5484H6.17485C5.49253 69.5484 4.93988 70.1042 4.93988 70.7903C4.93988 71.4765 5.49253 72.0323 6.17485 72.0323H13.5847C14.267 72.0323 14.8196 71.4765 14.8196 70.7903C14.8196 70.1042 14.267 69.5484 13.5847 69.5484Z" fill="#A3AAB5"/>
<path d="M18.5246 69.5484H17.2896C16.6073 69.5484 16.0546 70.1042 16.0546 70.7903C16.0546 71.4765 16.6073 72.0323 17.2896 72.0323H18.5246C19.2069 72.0323 19.7595 71.4765 19.7595 70.7903C19.7595 70.1042 19.2069 69.5484 18.5246 69.5484Z" fill="#A3AAB5"/>
<path d="M25.7523 45.0031C26.4269 44.8851 26.8792 44.2408 26.7634 43.5624C26.1027 39.714 29.0543 36.2086 32.9135 36.2086C36.7605 36.2086 39.7182 39.6969 39.0668 43.5469C38.9525 44.2253 39.4064 44.8696 40.081 44.986C40.7556 45.1024 41.3962 44.6445 41.512 43.9661C42.4182 38.6071 38.3057 33.7154 32.9135 33.7154C27.5275 33.7154 23.395 38.6071 24.3197 43.9878C24.4355 44.6678 25.0792 45.1211 25.7523 45.0031Z" fill="#A3AAB5"/>
<path d="M46.4967 53.6345C45.5427 51.753 43.2719 51.0016 41.4071 51.9284C40.541 50.2177 38.5574 49.4089 36.7558 50.0376V42.2025C36.7558 40.1145 35.0871 38.3696 33.0355 38.3122C30.8851 38.2516 29.1037 39.9826 29.1037 42.1497V61.8608L27.6093 60.2867C26.1752 58.7762 23.7732 58.6706 22.2542 60.0507C20.6518 61.5069 20.5716 63.9876 22.0474 65.5463L30.6366 74.7599C31.8345 76.0437 33.5264 76.7811 35.277 76.7811H45.6368C49.1441 76.7811 51.9985 73.9107 51.9985 70.3836V57.0778C52 54.2415 49.0268 52.3755 46.4967 53.6345ZM49.456 70.382C49.456 72.498 47.744 74.2196 45.6399 74.2196H35.2801C34.2288 74.2196 33.2146 73.7772 32.4952 73.0072C32.4643 72.9746 23.9245 63.8138 23.8936 63.7812C23.4012 63.2626 23.4259 62.4352 23.9616 61.9462C24.4679 61.4867 25.2783 61.5348 25.7708 62.0518L29.4572 65.9344C30.2476 66.768 31.6492 66.2029 31.6492 65.051V42.1497C31.6492 41.431 32.242 40.8504 32.9676 40.8705C33.6545 40.8892 34.2134 41.4869 34.2134 42.2025C34.2134 56.2814 34.1902 49.8994 34.1902 57.5032C34.1902 58.2126 34.7645 58.7886 35.4746 58.7824C36.1847 58.7901 36.7589 58.2126 36.7589 57.5032V53.4219C36.8716 52.8319 37.3888 52.3864 38.0078 52.3864C38.7086 52.3864 39.2798 52.9608 39.2798 53.6656V57.5032C39.2798 58.2095 39.8495 58.7824 40.5518 58.7824C41.2542 58.7824 41.8239 58.2095 41.8239 57.5032V55.3701C41.8239 54.6653 42.395 54.0909 43.0959 54.0909C43.7967 54.0909 44.3679 54.6653 44.3679 55.3701V57.5032C44.3679 58.2095 44.9375 58.7824 45.6399 58.7824C46.3423 58.7824 46.9119 58.2095 46.9119 57.5032V57.0763C46.9119 56.3715 47.4831 55.7971 48.184 55.7971C48.8848 55.7971 49.456 56.3715 49.456 57.0763V70.382Z" fill="#A3AAB5"/>
<path d="M18.9105 32.6676L16.0361 35.5582C14.8444 36.7566 12.9147 36.7566 11.7245 35.5582C10.5343 34.3613 10.5343 32.4207 11.7245 31.2238L17.4733 25.4426C18.6635 24.2457 20.5931 24.2457 21.7834 25.4426C22.1801 25.8416 22.8238 25.8416 23.2205 25.4426C23.6173 25.0436 23.6173 24.3963 23.2205 23.9973C21.2369 22.0024 18.0198 22.0024 16.0361 23.9973L10.2873 29.7785C8.30364 31.7734 8.30364 35.0086 10.2873 37.0035C12.271 38.9999 15.4881 38.9999 17.4733 37.0035L20.3477 34.1129C20.7444 33.7139 20.7444 33.0665 20.3477 32.6676C19.951 32.2686 19.3072 32.2686 18.9105 32.6676Z" fill="#26B1FF"/>
<path d="M31.7002 15.4714C29.7165 13.4766 26.4994 13.4766 24.5142 15.4714L21.0671 18.938C20.6704 19.3369 20.6704 19.9843 21.0671 20.3833C21.4638 20.7822 22.1076 20.7822 22.5043 20.3833L25.9514 16.9167C27.1416 15.7198 29.0728 15.7198 30.263 16.9167C31.4532 18.1136 31.4532 20.0542 30.263 21.2511L23.9399 27.6098C22.7497 28.8067 20.8201 28.8067 19.6299 27.6098C19.2332 27.2108 18.5894 27.2108 18.1927 27.6098C17.796 28.0088 17.796 28.6561 18.1927 29.0551C20.1764 31.0499 23.3935 31.0499 25.3771 29.0551L31.7002 22.6964C33.6839 20.7015 33.6839 17.4663 31.7002 15.4714Z" fill="#26B1FF"/>
</svg>
