<svg width="42" height="77" viewBox="0 0 42 77" fill="none" xmlns="http://www.w3.org/2000/svg">
<path d="M35.8235 0H6.17647C2.76706 0.00310484 0.00308824 2.78194 0 6.20968V70.7903C0.00308824 74.2181 2.76706 76.9969 6.17647 77H35.8235C39.2329 76.9969 41.9969 74.2181 42 70.7903V6.20968C41.9969 2.78194 39.2329 0.00310484 35.8235 0ZM29.3753 2.48387L28.6341 6.20968H13.3659L12.6247 2.48387H29.3753ZM39.5294 70.7903C39.5279 72.8473 37.8695 74.5146 35.8235 74.5161H6.17647C4.13051 74.5146 2.47213 72.8473 2.47059 70.7903V6.20968C2.47213 4.15272 4.13051 2.48542 6.17647 2.48387H10.1047L11.1408 7.69534C11.2566 8.27595 11.7646 8.69355 12.3529 8.69355H29.6471C30.2354 8.69355 30.7434 8.27595 30.8592 7.69534L31.8953 2.48387H35.8235C37.8695 2.48542 39.5279 4.15272 39.5294 6.20968V70.7903Z" fill="#A3AAB5"/>
<path d="M13.5882 69.5484H6.17646C5.49396 69.5484 4.94116 70.1042 4.94116 70.7903C4.94116 71.4765 5.49396 72.0323 6.17646 72.0323H13.5882C14.2707 72.0323 14.8235 71.4765 14.8235 70.7903C14.8235 70.1042 14.2707 69.5484 13.5882 69.5484Z" fill="#A3AAB5"/>
<path d="M18.5294 69.5484H17.2941C16.6116 69.5484 16.0588 70.1042 16.0588 70.7903C16.0588 71.4765 16.6116 72.0323 17.2941 72.0323H18.5294C19.2119 72.0323 19.7647 71.4765 19.7647 70.7903C19.7647 70.1042 19.2119 69.5484 18.5294 69.5484Z" fill="#A3AAB5"/>
<path d="M21 18.9007H5.57886V20.8536H21V18.9007Z" fill="#A3AAB5"/>
<path d="M21 22.67H10.9663V24.6229H21V22.67Z" fill="#A3AAB5"/>
<path d="M21 39.5727H5.57886V41.5257H21V39.5727Z" fill="#26B1FF"/>
<path d="M21 43.342H10.9663V45.2949H21V43.342Z" fill="#26B1FF"/>
<path d="M21 55.5735H5.57886V57.5265H21V55.5735Z" fill="#A3AAB5"/>
<path d="M21 59.3428H10.9663V61.2957H21V59.3428Z" fill="#A3AAB5"/>
<path d="M33.9011 23.4462C33.3607 22.9028 32.7168 22.4992 32.0142 22.2555C32.7662 21.7339 33.2603 20.863 33.2603 19.8772C33.2603 18.286 31.9725 16.9912 30.3898 16.9912C28.8071 16.9912 27.5193 18.286 27.5193 19.8772C27.5193 20.863 28.0134 21.7354 28.7654 22.2555C28.0628 22.4992 27.4189 22.9013 26.8785 23.4462C25.9412 24.3885 25.4239 25.6429 25.4239 26.9764H26.2006C26.2006 24.654 28.0798 22.7631 30.3913 22.7631C32.7013 22.7631 34.5821 24.6524 34.5821 26.9764H35.3587C35.3557 25.6429 34.8384 24.3885 33.9011 23.4462ZM30.3898 21.9838C29.2348 21.9838 28.2944 21.0384 28.2944 19.8772C28.2944 18.716 29.2348 17.7705 30.3898 17.7705C31.5448 17.7705 32.4851 18.716 32.4851 19.8772C32.4851 21.0384 31.5448 21.9838 30.3898 21.9838Z" fill="#A3AAB5"/>
<path d="M36.0505 27.675H33.8856V26.9764C33.8856 25.039 32.3184 23.4617 30.3898 23.4617C28.4612 23.4617 26.8939 25.0374 26.8939 26.9764V27.675H24.7275V26.9764C24.7275 25.4566 25.3158 24.0268 26.3859 22.9525C26.7395 22.597 27.1301 22.2943 27.5517 22.049C27.0838 21.4327 26.8228 20.672 26.8228 19.8787C26.8228 17.9025 28.4226 16.2942 30.3882 16.2942C32.3539 16.2942 33.9536 17.9025 33.9536 19.8787C33.9536 20.672 33.6911 21.4327 33.2248 22.049C33.6478 22.2958 34.037 22.597 34.3906 22.9525C35.4591 24.0268 36.0489 25.4566 36.0489 26.9764V27.675H36.0505ZM30.3898 18.4691C29.6177 18.4691 28.9892 19.101 28.9892 19.8772C28.9892 20.6534 29.6177 21.2852 30.3898 21.2852C31.1618 21.2852 31.7903 20.6534 31.7903 19.8772C31.7903 19.101 31.1618 18.4691 30.3898 18.4691Z" fill="#A3AAB5"/>
<path d="M33.9011 41.0351C33.3607 40.4917 32.7168 40.0881 32.0142 39.8444C32.7662 39.3228 33.2603 38.4519 33.2603 37.4661C33.2603 35.8749 31.9725 34.5801 30.3898 34.5801C28.8071 34.5801 27.5193 35.8749 27.5193 37.4661C27.5193 38.4519 28.0134 39.3243 28.7654 39.8444C28.0628 40.0881 27.4189 40.4902 26.8785 41.0351C25.9412 41.9774 25.4239 43.2318 25.4239 44.5653H26.2006C26.2006 42.2429 28.0798 40.352 30.3913 40.352C32.7013 40.352 34.5821 42.2413 34.5821 44.5653H35.3587C35.3557 43.2318 34.8384 41.9774 33.9011 41.0351ZM30.3898 39.5727C29.2348 39.5727 28.2944 38.6273 28.2944 37.4661C28.2944 36.3049 29.2348 35.3595 30.3898 35.3595C31.5448 35.3595 32.4851 36.3049 32.4851 37.4661C32.4851 38.6273 31.5448 39.5727 30.3898 39.5727Z" fill="#26B1FF"/>
<path d="M36.0505 45.2639H33.8856V44.5653C33.8856 42.6279 32.3184 41.0506 30.3898 41.0506C28.4612 41.0506 26.8939 42.6263 26.8939 44.5653V45.2639H24.7275V44.5653C24.7275 43.0455 25.3158 41.6157 26.3859 40.5414C26.7395 40.1859 27.1301 39.8832 27.5517 39.6364C27.0838 39.0201 26.8228 38.2594 26.8228 37.4661C26.8228 35.4899 28.4226 33.8815 30.3882 33.8815C32.3539 33.8815 33.9536 35.4899 33.9536 37.4661C33.9536 38.2594 33.6911 39.0201 33.2248 39.6364C33.6478 39.8832 34.037 40.1844 34.3906 40.5414C35.4591 41.6157 36.0489 43.0455 36.0489 44.5653V45.2639H36.0505ZM30.3898 36.058C29.6177 36.058 28.9892 36.6899 28.9892 37.4661C28.9892 38.2423 29.6177 38.8741 30.3898 38.8741C31.1618 38.8741 31.7903 38.2423 31.7903 37.4661C31.7903 36.6899 31.1618 36.058 30.3898 36.058Z" fill="#26B1FF"/>
<path d="M33.9011 57.3945C33.3607 56.8512 32.7168 56.4475 32.0142 56.2038C32.7662 55.6822 33.2603 54.8113 33.2603 53.8255C33.2603 52.2343 31.9725 50.9395 30.3898 50.9395C28.8071 50.9395 27.5193 52.2343 27.5193 53.8255C27.5193 54.8113 28.0134 55.6837 28.7654 56.2038C28.0628 56.4475 27.4189 56.8496 26.8785 57.3945C25.9412 58.3368 25.4239 59.5912 25.4239 60.9247H26.2006C26.2006 58.6023 28.0798 56.7114 30.3913 56.7114C32.7013 56.7114 34.5821 58.6007 34.5821 60.9247H35.3587C35.3557 59.5912 34.8384 58.3368 33.9011 57.3945ZM30.3898 55.9321C29.2348 55.9321 28.2944 54.9867 28.2944 53.8255C28.2944 52.6643 29.2348 51.7189 30.3898 51.7189C31.5448 51.7189 32.4851 52.6643 32.4851 53.8255C32.4851 54.9867 31.5448 55.9321 30.3898 55.9321Z" fill="#A3AAB5"/>
<path d="M36.0505 61.6233H33.8856V60.9247C33.8856 58.9873 32.3183 57.41 30.3897 57.41C28.4611 57.41 26.8939 58.9857 26.8939 60.9247V61.6233H24.729V60.9247C24.729 59.4049 25.3173 57.9751 26.3874 56.9008C26.741 56.5453 27.1317 56.2426 27.5532 55.9958C27.0853 55.3795 26.8244 54.6188 26.8244 53.8255C26.8244 51.8493 28.4241 50.241 30.3897 50.241C32.3554 50.241 33.9551 51.8493 33.9551 53.8255C33.9551 54.6188 33.6926 55.3795 33.2263 55.9958C33.6494 56.2426 34.0385 56.5438 34.3936 56.9008C35.4622 57.9751 36.052 59.4049 36.052 60.9247V61.6233H36.0505ZM30.3897 52.4174C29.6177 52.4174 28.9892 53.0493 28.9892 53.8255C28.9892 54.6017 29.6177 55.2335 30.3897 55.2335C31.1618 55.2335 31.7903 54.6017 31.7903 53.8255C31.7903 53.0493 31.1618 52.4174 30.3897 52.4174Z" fill="#A3AAB5"/>
</svg>
