<svg width="29" height="27" viewBox="0 0 29 27" fill="none" xmlns="http://www.w3.org/2000/svg">
<g clip-path="url(#clip0)">
<path d="M9.04264 10.935L7.08264 12.825L13.3826 18.9L27.3826 5.40001L25.4226 3.51001L13.3826 15.12L9.04264 10.935Z" fill="#26B1FF"/>
<path d="M25.9826 13.5C25.9826 19.44 20.9426 24.3 14.7826 24.3C8.62259 24.3 3.58259 19.44 3.58259 13.5C3.58259 7.56 8.62259 2.7 14.7826 2.7C15.9026 2.7 16.8826 2.835 17.8626 3.105L20.1026 0.945C18.4226 0.405 16.6026 0 14.7826 0C7.08259 0 0.782593 6.075 0.782593 13.5C0.782593 20.925 7.08259 27 14.7826 27C22.4826 27 28.7826 20.925 28.7826 13.5H25.9826Z" fill="white"/>
</g>
<defs>
<clipPath id="clip0">
<rect width="28" height="27" fill="white" transform="translate(0.782593)"/>
</clipPath>
</defs>
</svg>
