<svg width="27" height="27" viewBox="0 0 27 27" fill="none" xmlns="http://www.w3.org/2000/svg">
<path d="M5.64188 16.7256C6.19464 16.15 6.86137 15.8423 7.56799 15.8423C8.26891 15.8423 8.94134 16.1443 9.51689 16.7199L11.3176 18.5149C11.4658 18.4351 11.6139 18.361 11.7564 18.287C11.9616 18.1844 12.1553 18.0875 12.3206 17.9849C14.0073 16.9136 15.5402 15.5175 17.0105 13.711C17.7228 12.8107 18.2015 12.0528 18.5491 11.2835C18.0818 10.8561 17.6487 10.4116 17.227 9.9842C17.0674 9.82464 16.9079 9.65938 16.7483 9.49983C15.5516 8.30313 15.5516 6.75313 16.7483 5.55644L18.304 4.00074C18.4807 3.82409 18.663 3.64173 18.834 3.45938C19.1759 3.10607 19.5349 2.74136 19.9053 2.39945C20.4581 1.85239 21.1191 1.56177 21.8143 1.56177C22.5095 1.56177 23.182 1.85239 23.7518 2.39945C23.7575 2.40515 23.7575 2.40515 23.7632 2.41085L25.7007 4.36545C26.4301 5.09486 26.8461 5.98383 26.9373 7.01527C27.0741 8.67924 26.584 10.2292 26.2079 11.2436C25.2847 13.7338 23.9057 16.0417 21.8485 18.5149C19.3526 21.4952 16.3494 23.8487 12.9189 25.507C11.6082 26.1281 9.8588 26.8633 7.9042 26.9886C7.78453 26.9943 7.65916 27 7.54519 27C6.22883 27 5.12332 26.527 4.25714 25.5868C4.25144 25.5754 4.24004 25.5697 4.23435 25.5583C3.93802 25.1993 3.59611 24.8745 3.2371 24.5269C2.99207 24.2932 2.74133 24.0482 2.49629 23.7918C1.93214 23.2048 1.63581 22.521 1.63581 21.8201C1.63581 21.1134 1.93784 20.4353 2.51339 19.8655L5.64188 16.7256ZM3.60181 22.7261C3.60751 22.7261 3.60751 22.7318 3.60181 22.7261C3.82405 22.9655 4.05199 23.182 4.29703 23.4213C4.66743 23.7747 5.04354 24.1451 5.39685 24.5611C5.9724 25.1765 6.65052 25.4671 7.5395 25.4671C7.62497 25.4671 7.71615 25.4671 7.80163 25.4614C9.49409 25.3531 11.0669 24.6921 12.2465 24.128C15.4719 22.5666 18.304 20.3498 20.6575 17.5405C22.6007 15.1984 23.9 13.0329 24.7605 10.7079C25.2904 9.28898 25.4842 8.18346 25.3987 7.14063C25.3417 6.4739 25.0853 5.92115 24.6123 5.44817L22.6691 3.50497C22.3899 3.24284 22.0936 3.10037 21.8029 3.10037C21.4439 3.10037 21.1533 3.31692 20.9709 3.49927C20.9652 3.50497 20.9595 3.51067 20.9538 3.51637C20.6062 3.84118 20.2757 4.1774 19.9281 4.5364C19.7515 4.71876 19.5691 4.90111 19.3867 5.08916L17.831 6.64486C17.227 7.24891 17.227 7.80736 17.831 8.41141C17.9963 8.57666 18.1559 8.74192 18.3211 8.90148C18.7998 9.39155 19.2557 9.84744 19.7515 10.2919C19.7629 10.3033 19.7742 10.309 19.7799 10.3204C20.27 10.8105 20.1788 11.2892 20.0763 11.614C20.0706 11.6311 20.0649 11.6482 20.0592 11.6653C19.6546 12.6454 19.0847 13.5686 18.2185 14.6684L18.2128 14.6741C16.6401 16.6116 14.9818 18.1217 13.1526 19.2785C12.9189 19.4267 12.6796 19.5463 12.4516 19.6603C12.2465 19.7629 12.0527 19.8598 11.8875 19.9623C11.8647 19.9737 11.8419 19.9908 11.8191 20.0022C11.6253 20.0991 11.443 20.1447 11.2549 20.1447C10.782 20.1447 10.4856 19.8484 10.3888 19.7515L8.43987 17.8026C8.24611 17.6088 7.93839 17.3752 7.57939 17.3752C7.22608 17.3752 6.93545 17.5974 6.7588 17.7912C6.7531 17.7969 6.7531 17.7969 6.7474 17.8026L3.60751 20.9425C3.02056 21.5237 3.02056 22.1221 3.60181 22.7261Z" fill="white"/>
<path d="M12.389 6.42259C10.8959 6.67333 9.53968 7.37995 8.45696 8.46267C7.37424 9.54539 6.67332 10.9016 6.41688 12.3947C6.3542 12.7708 6.02938 13.0329 5.65898 13.0329C5.61339 13.0329 5.5735 13.0272 5.52791 13.0215C5.10622 12.9531 4.82699 12.5542 4.89537 12.1325C5.20309 10.3261 6.05788 8.67922 7.36284 7.37425C8.66781 6.06929 10.3147 5.2145 12.1211 4.90678C12.5428 4.8384 12.936 5.11763 13.0101 5.53362C13.0842 5.94962 12.8106 6.35421 12.389 6.42259Z" fill="white"/>
<path d="M0.0117226 11.9103C0.518892 8.93563 1.92073 6.22883 4.07478 4.07478C6.22883 1.92074 8.93563 0.518898 11.9103 0.0117284C12.3263 -0.0623525 12.7195 0.222574 12.7935 0.638567C12.8619 1.06026 12.5827 1.45346 12.161 1.52754C9.50548 1.97772 7.08361 3.2371 5.1575 5.15751C3.2314 7.08361 1.97772 9.50549 1.52753 12.161C1.46485 12.5371 1.14003 12.7992 0.769629 12.7992C0.72404 12.7992 0.68415 12.7935 0.638561 12.7878C0.222569 12.7252 -0.0623589 12.3263 0.0117226 11.9103Z" fill="white"/>
</svg>
