<svg width="317" height="303" viewBox="0 0 317 303" fill="none" xmlns="http://www.w3.org/2000/svg">
<g clip-path="url(#clip0)">
<path d="M58.9977 262.078L0.39502 110.123L149.876 52.4226L208.479 204.378L204.381 205.959L58.9977 262.078ZM11.7518 115.159L64.0309 250.717L197.122 199.344L144.843 63.7845L11.7518 115.159Z" fill="#26B1FF"/>
<path d="M184.726 109.473L190.639 137.448L191.773 142.817C193.283 146.731 204.809 201.515 200.48 203.187L113.775 182.289L58.1398 264.352C53.8122 266.022 27.8644 212.297 26.3547 208.383L23.5283 201.954L12.1885 176.162L20.3299 160.888L66.5037 74.2635C68.5674 71.1019 72.6186 69.5386 76.2703 70.4935L168.57 103.667L184.726 109.473Z" fill="#606276"/>
<path d="M147.367 57.9987L6.07617 112.541L61.5224 256.303L202.814 201.761L147.367 57.9987Z" fill="white"/>
<path d="M125.114 211.659L12.1885 176.162L57.322 293.19L229.889 226.578L184.756 109.55L125.114 211.659Z" fill="#9CD3F2"/>
<path d="M12.1885 176.162L57.3219 293.19L108.176 206.334L12.1885 176.162Z" fill="#26B1FF"/>
<path d="M184.756 109.55L229.889 226.578L133.901 196.404L184.756 109.55Z" fill="#26B1FF"/>
<path d="M219.688 222.356C219.434 221.698 219.763 220.958 220.42 220.705L220.009 219.639C219.352 219.893 218.612 219.565 218.359 218.907C218.105 218.248 218.433 217.509 219.091 217.255L218.68 216.189C218.022 216.443 217.283 216.115 217.029 215.457C216.775 214.798 217.104 214.059 217.761 213.805L217.35 212.739C216.692 212.993 215.953 212.665 215.7 212.007C215.446 211.349 215.774 210.609 216.432 210.355L216.021 209.289C215.363 209.544 214.623 209.215 214.37 208.557C214.116 207.899 214.444 207.159 215.102 206.906L214.746 205.982L213.823 206.339C213.825 206.344 213.828 206.349 213.83 206.356C214.084 207.014 213.756 207.753 213.098 208.007C212.44 208.261 211.701 207.933 211.447 207.274C211.445 207.269 211.444 207.263 211.442 207.257L210.374 207.67C210.376 207.675 210.38 207.68 210.382 207.687C210.636 208.345 210.307 209.085 209.65 209.338C208.992 209.592 208.252 209.264 207.999 208.606C207.997 208.6 207.996 208.594 207.994 208.589L206.927 209.001C206.929 209.006 206.932 209.012 206.934 209.018C207.189 209.676 206.86 210.416 206.202 210.669C205.544 210.924 204.805 210.595 204.552 209.937C204.55 209.932 204.549 209.925 204.546 209.92L203.479 210.332C203.481 210.337 203.484 210.343 203.486 210.349C203.74 211.007 203.412 211.747 202.754 212C202.096 212.255 201.357 211.926 201.103 211.268C201.101 211.263 201.1 211.256 201.098 211.251L200.031 211.663C200.033 211.669 200.037 211.674 200.039 211.68C200.293 212.338 199.965 213.078 199.307 213.332C198.649 213.586 197.909 213.257 197.656 212.599C197.654 212.594 197.653 212.588 197.651 212.582L196.727 212.938L197.083 213.862C197.741 213.607 198.48 213.936 198.734 214.594C198.988 215.252 198.659 215.992 198.002 216.245L198.413 217.311C199.07 217.057 199.81 217.386 200.063 218.044C200.317 218.702 199.989 219.442 199.331 219.695L199.742 220.761C200.4 220.507 201.139 220.836 201.393 221.494C201.647 222.152 201.318 222.892 200.661 223.145L201.072 224.211C201.73 223.957 202.469 224.285 202.722 224.944C202.976 225.602 202.648 226.342 201.99 226.595L202.401 227.661C203.059 227.407 203.799 227.735 204.052 228.393C204.306 229.052 203.978 229.791 203.32 230.045L203.676 230.968L204.598 230.612C204.344 229.954 204.673 229.214 205.33 228.961C205.988 228.706 206.728 229.035 206.981 229.693L208.047 229.282C207.792 228.623 208.121 227.884 208.779 227.63C209.437 227.376 210.176 227.705 210.429 228.363L211.495 227.952C211.241 227.293 211.569 226.554 212.227 226.3C212.885 226.047 213.624 226.374 213.878 227.033L214.943 226.621C214.689 225.963 215.018 225.223 215.675 224.97C216.333 224.716 217.073 225.044 217.326 225.702L218.392 225.291C218.137 224.633 218.466 223.893 219.124 223.64C219.782 223.386 220.521 223.714 220.774 224.372L221.697 224.016L221.341 223.093C220.681 223.343 219.942 223.015 219.688 222.356Z" fill="white"/>
<path d="M192.64 232.797C192.385 232.139 192.714 231.399 193.372 231.146L192.961 230.08C192.303 230.334 191.563 230.005 191.31 229.347C191.056 228.689 191.384 227.949 192.042 227.696L191.631 226.63C190.973 226.884 190.234 226.556 189.981 225.897C189.726 225.239 190.055 224.499 190.713 224.246L190.301 223.18C189.644 223.434 188.904 223.106 188.651 222.448C188.397 221.789 188.725 221.05 189.383 220.796L188.972 219.73C188.314 219.984 187.575 219.656 187.321 218.998C187.067 218.339 187.396 217.6 188.053 217.346L187.698 216.423L186.774 216.779C186.776 216.785 186.779 216.79 186.781 216.796C187.035 217.454 186.707 218.194 186.049 218.448C185.391 218.702 184.652 218.373 184.399 217.715C184.396 217.71 184.395 217.704 184.393 217.698L183.326 218.111C183.329 218.116 183.332 218.121 183.334 218.127C183.588 218.786 183.26 219.525 182.602 219.779C181.944 220.033 181.204 219.705 180.951 219.046C180.949 219.041 180.948 219.035 180.946 219.029L179.878 219.442C179.88 219.447 179.883 219.452 179.886 219.459C180.14 220.117 179.811 220.857 179.153 221.11C178.496 221.364 177.756 221.036 177.503 220.378C177.501 220.372 177.5 220.366 177.498 220.361L176.43 220.773C176.432 220.778 176.435 220.784 176.437 220.79C176.691 221.448 176.363 222.188 175.705 222.441C175.047 222.696 174.308 222.367 174.055 221.709C174.052 221.704 174.051 221.697 174.049 221.692L172.982 222.104C172.985 222.109 172.988 222.115 172.99 222.121C173.244 222.779 172.916 223.519 172.258 223.772C171.6 224.027 170.86 223.698 170.607 223.04C170.605 223.035 170.604 223.028 170.602 223.023L169.678 223.379L170.034 224.302C170.692 224.048 171.432 224.377 171.685 225.035C171.939 225.693 171.611 226.433 170.953 226.686L171.364 227.752C172.022 227.498 172.761 227.826 173.014 228.485C173.269 229.143 172.94 229.883 172.282 230.136L172.693 231.202C173.351 230.948 174.091 231.276 174.344 231.934C174.598 232.593 174.27 233.332 173.612 233.586L174.023 234.652C174.681 234.398 175.42 234.726 175.673 235.384C175.928 236.043 175.599 236.782 174.941 237.036L175.352 238.102C176.01 237.847 176.75 238.176 177.003 238.834C177.257 239.492 176.929 240.232 176.271 240.485L176.627 241.409L177.55 241.053C177.295 240.394 177.624 239.655 178.282 239.401C178.939 239.147 179.679 239.475 179.932 240.134L180.998 239.722C180.744 239.064 181.072 238.324 181.73 238.071C182.388 237.817 183.127 238.145 183.38 238.803L184.446 238.392C184.192 237.734 184.52 236.994 185.178 236.741C185.836 236.487 186.576 236.815 186.829 237.473L187.895 237.062C187.64 236.404 187.969 235.664 188.627 235.411C189.284 235.156 190.024 235.485 190.277 236.143L191.343 235.732C191.089 235.074 191.417 234.334 192.075 234.081C192.733 233.826 193.472 234.155 193.725 234.813L194.648 234.457L194.292 233.534C193.632 233.784 192.893 233.455 192.64 232.797Z" fill="white"/>
<path d="M100.87 129.1L47.8211 149.579C47.0307 149.884 46.1938 149.862 45.4618 149.579C44.6291 149.258 43.9309 148.6 43.5845 147.701L37.3743 131.6C36.7228 129.911 37.564 128.014 39.2516 127.362L92.302 106.882C93.2162 106.529 94.1919 106.614 94.9981 107.035C95.6793 107.391 96.2387 107.987 96.5374 108.76L102.748 124.862C103.399 126.551 102.559 128.449 100.87 129.1Z" fill="#26B1FF"/>
<path d="M153.468 141.116L134.296 148.517C133.461 148.839 132.574 148.796 131.812 148.464C131.036 148.127 130.389 147.491 130.061 146.639L123.922 130.722C123.27 129.034 124.11 127.135 125.799 126.483L144.97 119.083C145.791 118.767 146.661 118.803 147.413 119.117C148.208 119.449 148.872 120.093 149.206 120.962L155.346 136.878C155.997 138.567 155.156 140.464 153.468 141.116Z" fill="#26B1FF"/>
<path d="M139.433 97.2076L111.951 107.817C110.528 108.366 108.929 107.658 108.379 106.234C107.83 104.809 108.538 103.21 109.962 102.66L137.444 92.0503C138.868 91.5013 140.466 92.2093 141.016 93.6337C141.565 95.0582 140.856 96.6576 139.433 97.2076Z" fill="#9CD3F2"/>
<path d="M144.458 110.237L116.976 120.846C115.553 121.395 113.954 120.687 113.404 119.263C112.855 117.838 113.563 116.239 114.987 115.689L142.469 105.079C143.892 104.53 145.491 105.238 146.041 106.663C146.591 108.087 145.882 109.688 144.458 110.237Z" fill="#9CD3F2"/>
<path d="M112.226 139.859L52.4251 162.944C51.0013 163.493 49.4026 162.785 48.8528 161.361C48.3041 159.936 49.0117 158.337 50.4356 157.787L110.236 134.702C111.66 134.153 113.259 134.861 113.809 136.285C114.357 137.71 113.649 139.309 112.226 139.859Z" fill="#9CD3F2"/>
<path d="M117.251 152.888L57.45 175.973C56.0262 176.522 54.4275 175.814 53.8777 174.39C53.329 172.965 54.0366 171.366 55.4605 170.816L115.261 147.731C116.685 147.182 118.284 147.89 118.834 149.314C119.383 150.739 118.675 152.339 117.251 152.888Z" fill="#9CD3F2"/>
<path d="M154.97 153.296L62.4759 189.003C61.0521 189.552 59.4534 188.844 58.9036 187.42C58.3548 185.995 59.0625 184.396 60.4863 183.846L152.98 148.14C154.404 147.591 156.003 148.299 156.552 149.723C157.101 151.147 156.394 152.747 154.97 153.296Z" fill="#9CD3F2"/>
<path d="M96.5375 108.721L102.748 124.823C103.399 126.511 102.558 128.409 100.87 129.061L47.8211 149.54C47.195 149.782 46.5403 149.818 45.9312 149.681L70.061 128.192L94.193 106.702C94.4738 106.765 94.7439 106.863 94.9982 106.996C95.6794 107.352 96.2387 107.948 96.5375 108.721Z" fill="#9CD3F2"/>
<path d="M155.346 136.878C155.997 138.567 155.155 140.465 153.468 141.116L134.297 148.517C133.485 148.831 132.625 148.798 131.878 148.49L139.635 133.8L147.391 119.109C147.398 119.111 147.406 119.114 147.413 119.117C148.209 119.449 148.872 120.094 149.206 120.962L155.346 136.878Z" fill="#9CD3F2"/>
<path d="M162.499 62.1672C161.968 62.1672 161.467 61.845 161.263 61.3193L156.294 48.4333C156.031 47.7508 156.37 46.9834 157.052 46.7206C157.734 46.4577 158.501 46.7969 158.764 47.4794L163.734 60.3654C163.997 61.0479 163.657 61.8153 162.975 62.0781C162.819 62.1385 162.658 62.1672 162.499 62.1672Z" fill="#9CD3F2"/>
<path d="M133.477 50.9971C132.945 50.9971 132.444 50.6749 132.241 50.1492C131.978 49.4666 132.317 48.6993 132.999 48.4364L145.298 43.6882C145.981 43.4254 146.747 43.7645 147.01 44.4471C147.273 45.1296 146.934 45.897 146.251 46.1598L133.953 50.9081C133.797 50.9685 133.636 50.9971 133.477 50.9971Z" fill="#76799B"/>
<path d="M60.2974 303C59.7656 303 59.2645 302.678 59.0611 302.152C58.7984 301.47 59.1374 300.702 59.8196 300.439L77.6355 293.562C78.3177 293.299 79.0848 293.638 79.3475 294.321C79.6102 295.003 79.2712 295.771 78.589 296.033L60.7731 302.911C60.6174 302.971 60.4563 303 60.2974 303Z" fill="#9CD3F2"/>
<path d="M49.7935 300.613C49.2616 300.613 48.7605 300.291 48.5582 299.765L44.0865 288.171C43.8238 287.489 44.1628 286.721 44.845 286.459C45.5273 286.196 46.2943 286.535 46.557 287.217L51.0287 298.811C51.2914 299.494 50.9524 300.261 50.2702 300.524C50.1134 300.585 49.9513 300.613 49.7935 300.613Z" fill="#26B1FF"/>
<path d="M310.924 44.2935L243.67 23.1172C243.758 26.655 242.997 29.9608 241.384 33.0344C240.316 36.3179 238.491 39.1594 235.91 41.5579C233.512 44.1408 230.672 45.9659 227.39 47.0343C224.235 48.693 220.835 49.4529 217.19 49.3151C214.444 49.3067 211.805 48.9039 209.273 48.109L167.304 181.522C166.101 185.346 167.874 189.393 171.32 191.17L171.312 191.196L171.461 191.243C171.826 191.422 172.209 191.576 172.609 191.702L256.267 218.043C256.666 218.169 257.068 218.262 257.469 218.324L257.619 218.37L257.627 218.344C261.469 218.862 265.239 216.56 266.443 212.736L316.229 54.4725C317.573 50.1969 315.199 45.6384 310.924 44.2935Z" fill="#606276"/>
<path d="M260.147 196.906L181.526 172.15C179.404 171.482 178.225 169.22 178.893 167.096L222.666 27.9512C223.333 25.8283 225.595 24.6487 227.718 25.3164L306.339 50.0718C308.461 50.7396 309.64 53.0024 308.973 55.1264L265.201 194.272C264.532 196.394 262.27 197.573 260.147 196.906Z" fill="white"/>
<path d="M221.765 199.185C224.184 196.765 224.184 192.84 221.765 190.42C219.345 187.999 215.423 187.999 213.003 190.42C210.584 192.84 210.584 196.765 213.003 199.185C215.423 201.606 219.345 201.606 221.765 199.185Z" fill="#26B1FF"/>
<path d="M217.395 201.451C216.725 201.451 216.051 201.349 215.393 201.142C211.899 200.042 209.952 196.304 211.051 192.808C212.149 189.313 215.888 187.365 219.381 188.464C221.074 188.997 222.457 190.157 223.277 191.731C224.097 193.305 224.256 195.105 223.723 196.798C223.19 198.491 222.03 199.875 220.457 200.696C219.495 201.197 218.45 201.451 217.395 201.451ZM217.391 189.05C214.947 189.05 212.676 190.623 211.904 193.075C211.443 194.541 211.579 196.098 212.289 197.46C212.999 198.822 214.196 199.827 215.661 200.288C218.685 201.24 221.919 199.553 222.87 196.528C223.822 193.503 222.136 190.268 219.113 189.316C218.541 189.136 217.961 189.05 217.391 189.05Z" fill="#9CD3F2"/>
<path d="M275.854 49.0745L253.278 41.966C252.359 41.6766 251.847 40.6952 252.137 39.7752C252.427 38.8552 253.408 38.3433 254.327 38.6337L276.903 45.7423C277.822 46.0316 278.334 47.0131 278.044 47.933C277.755 48.853 276.774 49.3649 275.854 49.0745Z" fill="#26B1FF"/>
<path d="M243.933 124.051L215.254 115.021C212.461 114.141 210.909 111.162 211.788 108.367L226.176 62.6314C227.055 59.8365 230.033 58.2838 232.827 59.1635L261.505 68.1936C264.299 69.0733 265.851 72.0526 264.972 74.8475L250.584 120.583C249.705 123.378 246.727 124.931 243.933 124.051Z" fill="#606276"/>
<path d="M279.473 103.066L265.086 148.8C264.206 151.595 261.228 153.149 258.435 152.269L229.756 143.239C228.319 142.786 227.211 141.778 226.592 140.527C226.008 139.344 225.862 137.943 226.288 136.585L240.676 90.8494C241.555 88.0546 244.533 86.5018 247.327 87.3815L276.007 96.4116C277.273 96.8102 278.284 97.64 278.929 98.6883C279.707 99.9527 279.954 101.536 279.473 103.066Z" fill="#26B1FF"/>
<path d="M250.029 173.742L203.081 158.96C200.934 158.284 199.741 155.995 200.417 153.845C201.093 151.697 203.381 150.503 205.529 151.18L252.477 165.962C254.625 166.638 255.818 168.927 255.142 171.077C254.466 173.225 252.177 174.418 250.029 173.742Z" fill="#9CD3F2"/>
<path d="M278.929 98.6883L226.595 140.527H226.592C226.008 139.344 225.862 137.943 226.288 136.585L240.676 90.8494C241.555 88.0546 244.533 86.5018 247.327 87.3815L276.007 96.4117C277.273 96.8102 278.284 97.64 278.929 98.6883Z" fill="#9CD3F2"/>
<path d="M260.022 153.869C259.361 153.869 258.691 153.77 258.027 153.562L229.349 144.532C225.846 143.43 223.894 139.682 224.997 136.178L239.384 90.4424C240.486 86.9385 244.232 84.9851 247.734 86.0885L276.413 95.1186C279.916 96.2209 281.868 99.9686 280.765 103.473L266.378 149.208C265.483 152.048 262.852 153.869 260.022 153.869ZM258.841 150.975C260.917 151.629 263.139 150.47 263.793 148.393L278.18 102.657C278.834 100.58 277.676 98.3576 275.6 97.7036L246.921 88.6735C244.844 88.0196 242.623 89.178 241.969 91.2553L227.581 136.991C226.928 139.068 228.086 141.291 230.162 141.945L258.841 150.975Z" fill="white"/>
</g>
<g clip-path="url(#clip1)">
<path d="M205.969 19.0592L202.443 22.3534L213.775 32.9418L238.956 9.41187L235.431 6.11768L213.775 26.3535L205.969 19.0592Z" fill="#26B1FF"/>
<path d="M236.438 23.53C236.438 33.8832 227.373 42.3539 216.293 42.3539C205.213 42.3539 196.148 33.8832 196.148 23.53C196.148 13.1768 205.213 4.70599 216.293 4.70599C218.308 4.70599 220.07 4.94129 221.833 5.41189L225.862 1.6471C222.84 0.705899 219.567 0 216.293 0C202.443 0 191.112 10.5885 191.112 23.53C191.112 36.4715 202.443 47.0599 216.293 47.0599C230.143 47.0599 241.474 36.4715 241.474 23.53H236.438Z" fill="#606276"/>
</g>
<defs>
<clipPath id="clip0">
<rect width="316.21" height="279.883" fill="white" transform="translate(0.39502 23.1172)"/>
</clipPath>
<clipPath id="clip1">
<rect width="50.3624" height="47.0599" fill="white" transform="translate(191.112)"/>
</clipPath>
</defs>
</svg>
