<svg width="43" height="78" fill="none" xmlns="http://www.w3.org/2000/svg"><path d="M36.676 0H6.324C2.833.003.004 2.818 0 6.29v65.42c.003 3.472 2.833 6.287 6.324 6.29h30.352c3.491-.003 6.32-2.818 6.324-6.29V6.29C42.997 2.818 40.167.003 36.676 0zm-6.601 2.516l-.76 3.774h-15.63l-.76-3.774h17.15zM40.47 71.71c-.002 2.083-1.7 3.772-3.794 3.774H6.323c-2.095-.002-3.793-1.69-3.795-3.774V6.29c.002-2.083 1.7-3.772 3.795-3.774h4.021l1.061 5.28a1.264 1.264 0 001.241 1.01h17.706c.602 0 1.122-.423 1.24-1.01l1.062-5.28h4.021c2.095.002 3.793 1.69 3.795 3.774v65.42z" fill="#A3AAB5"/><path d="M13.912 70.452H6.324c-.7 0-1.265.563-1.265 1.258 0 .695.566 1.258 1.265 1.258h7.588a1.26 1.26 0 001.264-1.258 1.26 1.26 0 00-1.264-1.258zm5.058 0h-1.264c-.699 0-1.265.563-1.265 1.258a1.26 1.26 0 001.265 1.258h1.265a1.26 1.26 0 001.264-1.258 1.26 1.26 0 00-1.264-1.258z" fill="#A3AAB5"/><path d="M8.774 22.736v-3.758c0-.546.446-.99.994-.99h3.779c.548 0 .994.444.994.99s-.446.99-.994.99h-2.784v2.768c0 .546-.446.99-.995.99a.992.992 0 01-.994-.99zm24.458-4.746h-3.779a.993.993 0 00-.994.99c0 .545.446.989.994.989h2.784v2.769c0 .546.446.99.995.99a.993.993 0 00.994-.99V18.98a.992.992 0 00-.994-.99zM13.547 41.33h-2.784v-2.769a.993.993 0 00-.995-.989.993.993 0 00-.994.99v3.758c0 .545.446.989.994.989h3.779a.993.993 0 00.994-.99.993.993 0 00-.994-.988zm19.685-3.758a.993.993 0 00-.995.99v2.769h-2.784a.992.992 0 00-.994.989c0 .545.446.989.994.989h3.779a.993.993 0 00.994-.99v-3.758a.992.992 0 00-.994-.989zM20.63 22.861v5.933c0 .546-.446.99-.995.99H13.67a.993.993 0 01-.995-.99v-5.933c0-.546.446-.99.995-.99h5.965c.55 0 .995.444.995.99zm-1.99.989h-3.977v3.956h3.978V23.85zm11.186 5.933h-5.965a.993.993 0 01-.994-.989v-5.933c0-.546.445-.99.994-.99h5.965c.548 0 .994.444.994.99v5.933c0 .547-.446.99-.995.99zm-.995-5.933h-3.977v3.956h3.977V23.85zm-8.201 9.148v5.933a.992.992 0 01-.995.989H13.67a.993.993 0 01-.995-.99v-5.932c0-.546.446-.99.995-.99h5.965c.55 0 .995.444.995.99zm-1.99.989h-3.977v3.956h3.978v-3.956zm9.905 4.66H25.14a.993.993 0 01-.995-.988V34.27c0-.545.446-.989.995-.989h3.405c.549 0 .994.444.994.99v3.387a.992.992 0 01-.994.989zm-.994-3.387h-1.417v1.41h1.417v-1.41z" fill="#26B1FF"/></svg>