<svg width="52" height="77" fill="none" xmlns="http://www.w3.org/2000/svg"><path d="M27.796 74.987a.742.742 0 01-.163-.47H6.175c-2.046-.002-3.704-1.67-3.705-3.727V6.21c.001-2.057 1.66-3.725 3.705-3.726h3.927l1.036 5.211c.116.58.624.999 1.212.999h17.29c.587 0 1.095-.418 1.211-.999l1.036-5.211h3.927c2.046.001 3.703 1.669 3.705 3.726v41.92c.766.523 1.618.898 2.47 1.273V6.21C41.986 2.782 39.223.003 35.814 0H6.174C2.767.003.005 2.782 0 6.21v64.58c.003 3.428 2.766 6.207 6.175 6.21H29.86c-.766-.565-1.468-1.216-2.064-2.013zm1.572-72.503l-.741 3.726H13.362l-.74-3.726h16.746z" fill="#A3AAB5"/><path d="M13.585 69.548h-7.41c-.682 0-1.235.556-1.235 1.242 0 .686.553 1.242 1.235 1.242h7.41c.682 0 1.235-.555 1.235-1.242 0-.686-.553-1.242-1.235-1.242zm4.94 0H17.29c-.683 0-1.235.556-1.235 1.242 0 .686.552 1.242 1.235 1.242h1.235c.682 0 1.235-.555 1.235-1.242 0-.686-.553-1.242-1.235-1.242zm7.227-24.545a1.247 1.247 0 001.011-1.44c-.66-3.849 2.291-7.354 6.15-7.354 3.848 0 6.805 3.488 6.154 7.338a1.248 1.248 0 001.014 1.439 1.242 1.242 0 001.431-1.02c.906-5.359-3.206-10.25-8.599-10.25-5.385 0-9.518 4.891-8.593 10.272.116.68.76 1.133 1.432 1.015z" fill="#A3AAB5"/><path d="M46.497 53.635a3.807 3.807 0 00-5.09-1.707 3.808 3.808 0 00-4.651-1.89v-7.835c0-2.089-1.669-3.833-3.72-3.89a3.83 3.83 0 00-3.932 3.837v19.71l-1.495-1.573c-1.434-1.51-3.836-1.616-5.355-.236a3.85 3.85 0 00-.207 5.495l8.59 9.214a6.372 6.372 0 004.64 2.021h10.36c3.507 0 6.361-2.87 6.361-6.397V57.078c.002-2.837-2.971-4.703-5.501-3.444zm2.959 16.747c0 2.116-1.712 3.838-3.816 3.838H35.28a3.825 3.825 0 01-2.785-1.213l-8.601-9.226a1.286 1.286 0 01.068-1.835c.506-.46 1.316-.411 1.809.106l3.686 3.882c.79.834 2.192.269 2.192-.883V42.15c0-.719.593-1.3 1.319-1.28.686.02 1.245.617 1.245 1.333 0 14.078-.023 7.696-.023 15.3 0 .71.575 1.286 1.285 1.28.71.007 1.284-.57 1.284-1.28v-4.081c.113-.59.63-1.036 1.249-1.036.7 0 1.272.575 1.272 1.28v3.837c0 .706.57 1.28 1.272 1.28.702 0 1.272-.574 1.272-1.28V55.37c0-.705.571-1.28 1.272-1.28.7 0 1.272.575 1.272 1.28v2.133c0 .706.57 1.28 1.272 1.28.702 0 1.272-.574 1.272-1.28v-.427c0-.705.571-1.279 1.272-1.279.7 0 1.272.575 1.272 1.28v13.305z" fill="#A3AAB5"/><path d="M18.91 32.668l-2.874 2.89a3.035 3.035 0 01-4.312 0 3.077 3.077 0 010-4.334l5.75-5.781a3.036 3.036 0 014.31 0c.396.399 1.04.399 1.437 0a1.026 1.026 0 000-1.446 5.06 5.06 0 00-7.185 0l-5.749 5.782a5.13 5.13 0 000 7.225 5.06 5.06 0 007.186 0l2.875-2.891a1.026 1.026 0 000-1.445 1.012 1.012 0 00-1.438 0z" fill="#26B1FF"/><path d="M31.7 15.471a5.062 5.062 0 00-7.186 0l-3.447 3.467a1.026 1.026 0 000 1.445c.397.4 1.04.4 1.437 0l3.447-3.466a3.037 3.037 0 014.312 0 3.077 3.077 0 010 4.334L23.94 27.61a3.036 3.036 0 01-4.31 0 1.012 1.012 0 00-1.437 0 1.026 1.026 0 000 1.445 5.06 5.06 0 007.184 0l6.323-6.359a5.13 5.13 0 000-7.225z" fill="#26B1FF"/></svg>