<svg width="42" height="77" fill="none" xmlns="http://www.w3.org/2000/svg"><path d="M35.824 0H6.176C2.767.003.003 2.782 0 6.21v64.58c.003 3.428 2.767 6.207 6.176 6.21h29.648c3.409-.003 6.173-2.782 6.176-6.21V6.21C41.997 2.782 39.233.003 35.824 0zm-6.449 2.484l-.74 3.726h-15.27l-.74-3.726h16.75zM39.53 70.79c-.001 2.057-1.66 3.725-3.706 3.726H6.177c-2.045-.001-3.704-1.669-3.705-3.726V6.21c.001-2.057 1.66-3.725 3.705-3.726h3.929l1.036 5.211c.116.58.624.999 1.212.999h17.294c.588 0 1.096-.418 1.212-.999l1.036-5.211h3.929c2.046.001 3.704 1.669 3.705 3.726v64.58z" fill="#A3AAB5"/><path d="M13.588 69.548H6.176c-.682 0-1.235.556-1.235 1.242 0 .686.553 1.242 1.235 1.242h7.412c.683 0 1.236-.555 1.236-1.242 0-.686-.553-1.242-1.236-1.242zm4.942 0h-1.236c-.682 0-1.235.556-1.235 1.242 0 .686.553 1.242 1.235 1.242h1.235c.683 0 1.236-.555 1.236-1.242 0-.686-.553-1.242-1.236-1.242zM21 18.9H5.579v1.954H21V18.9zm0 3.77H10.966v1.953H21V22.67z" fill="#A3AAB5"/><path d="M21 39.573H5.579v1.953H21v-1.953zm0 3.769H10.966v1.953H21v-1.953z" fill="#26B1FF"/><path d="M21 55.574H5.579v1.953H21v-1.953zm0 3.769H10.966v1.953H21v-1.953zm12.901-35.897a4.944 4.944 0 00-1.887-1.19 2.89 2.89 0 001.246-2.379 2.882 2.882 0 00-2.87-2.886 2.882 2.882 0 00-2.87 2.886 2.89 2.89 0 001.245 2.379 4.926 4.926 0 00-1.887 1.19 4.975 4.975 0 00-1.454 3.53h.777c0-2.322 1.879-4.213 4.19-4.213 2.31 0 4.191 1.89 4.191 4.213h.777a4.99 4.99 0 00-1.458-3.53zm-3.511-1.462a2.104 2.104 0 01-2.096-2.107c0-1.161.94-2.107 2.096-2.107 1.155 0 2.095.946 2.095 2.107 0 1.161-.94 2.107-2.095 2.107z" fill="#A3AAB5"/><path d="M36.05 27.675h-2.164v-.699c0-1.937-1.568-3.514-3.496-3.514-1.929 0-3.496 1.575-3.496 3.514v.699h-2.166v-.699c0-1.52.588-2.95 1.658-4.023a5.656 5.656 0 011.166-.904 3.589 3.589 0 01-.73-2.17c0-1.977 1.6-3.585 3.566-3.585 1.966 0 3.566 1.608 3.566 3.585 0 .793-.263 1.554-.73 2.17a5.67 5.67 0 011.167.904 5.671 5.671 0 011.658 4.023v.699h.002zm-5.66-9.206c-.772 0-1.4.632-1.4 1.408 0 .776.628 1.408 1.4 1.408.772 0 1.4-.632 1.4-1.408 0-.776-.628-1.408-1.4-1.408z" fill="#A3AAB5"/><path d="M33.901 41.035a4.944 4.944 0 00-1.887-1.19 2.89 2.89 0 001.246-2.379 2.882 2.882 0 00-2.87-2.886 2.882 2.882 0 00-2.87 2.886c0 .986.493 1.858 1.245 2.378a4.926 4.926 0 00-1.887 1.191 4.975 4.975 0 00-1.454 3.53h.777c0-2.322 1.879-4.213 4.19-4.213 2.31 0 4.191 1.89 4.191 4.213h.777a4.99 4.99 0 00-1.458-3.53zm-3.511-1.462a2.104 2.104 0 01-2.096-2.107c0-1.161.94-2.107 2.096-2.107 1.155 0 2.095.946 2.095 2.107 0 1.161-.94 2.107-2.095 2.107z" fill="#26B1FF"/><path d="M36.05 45.264h-2.164v-.699c0-1.937-1.568-3.514-3.496-3.514-1.929 0-3.496 1.575-3.496 3.514v.699h-2.166v-.699c0-1.52.588-2.95 1.658-4.024a5.715 5.715 0 011.166-.905 3.589 3.589 0 01-.73-2.17c0-1.976 1.6-3.584 3.566-3.584 1.966 0 3.566 1.608 3.566 3.584 0 .793-.263 1.554-.73 2.17.424.247.813.548 1.167.905a5.671 5.671 0 011.658 4.024v.699h.002zm-5.66-9.206c-.772 0-1.4.632-1.4 1.408 0 .776.628 1.408 1.4 1.408.772 0 1.4-.632 1.4-1.408 0-.776-.628-1.408-1.4-1.408z" fill="#26B1FF"/><path d="M33.901 57.395a4.945 4.945 0 00-1.887-1.191 2.89 2.89 0 001.246-2.379 2.882 2.882 0 00-2.87-2.886 2.882 2.882 0 00-2.87 2.886c0 .986.493 1.859 1.245 2.379a4.926 4.926 0 00-1.887 1.19 4.975 4.975 0 00-1.454 3.53h.777c0-2.322 1.879-4.213 4.19-4.213 2.31 0 4.191 1.89 4.191 4.214h.777a4.99 4.99 0 00-1.458-3.53zm-3.511-1.463a2.104 2.104 0 01-2.096-2.107c0-1.16.94-2.106 2.096-2.106 1.155 0 2.095.945 2.095 2.106 0 1.162-.94 2.107-2.095 2.107z" fill="#A3AAB5"/><path d="M36.05 61.623h-2.164v-.698c0-1.938-1.568-3.515-3.496-3.515-1.929 0-3.496 1.576-3.496 3.515v.698h-2.165v-.698c0-1.52.588-2.95 1.658-4.024a5.718 5.718 0 011.166-.905 3.589 3.589 0 01-.729-2.17c0-1.977 1.6-3.585 3.566-3.585 1.965 0 3.565 1.608 3.565 3.584 0 .794-.262 1.554-.729 2.17.423.248.813.549 1.168.906a5.67 5.67 0 011.658 4.024v.698h-.002zm-5.66-9.206c-.772 0-1.4.632-1.4 1.408 0 .777.628 1.408 1.4 1.408.772 0 1.4-.631 1.4-1.407 0-.777-.628-1.409-1.4-1.409z" fill="#A3AAB5"/></svg>