<svg width="65" height="80" fill="none" xmlns="http://www.w3.org/2000/svg"><g clip-path="url(#clip0)"><path d="M59.702 17.789H45.178c.005.667.022 1.335.08 1.998h9.168l-.606 3h-8.39c.067.667.152 1.333.241 1.998h8.977c.481 0 .897-.337.99-.805l.848-4.193h3.213c1.673.002 3.028 1.344 3.031 3v51.972c-.001 1.655-1.358 2.996-3.031 2.999H35.454c-1.674-.002-3.029-1.344-3.032-3v-33.71a23.24 23.24 0 01-2.02-1.236v34.947c.003 2.758 2.263 4.994 5.052 4.997h24.248c2.788-.003 5.048-2.239 5.052-4.997V22.786c-.004-2.758-2.264-4.994-5.052-4.997z" fill="#A3AAB5"/><path d="M59.702 80H35.454c-2.919-.003-5.295-2.354-5.299-5.241V39.35l.386.262a24.21 24.21 0 001.998 1.222l.13.068v33.857c.001 1.517 1.25 2.754 2.785 2.755h24.248c1.534-.001 2.784-1.238 2.785-2.755V22.786c-.001-1.517-1.251-2.752-2.785-2.755h-3.01l-.809 3.998c-.116.579-.635 1-1.232 1h-9.194l-.027-.212c-.08-.606-.173-1.31-.243-2.006l-.027-.268h8.462l.507-2.512h-9.095l-.02-.223a26.068 26.068 0 01-.08-2.018l-.002-.245h14.771c2.919.003 5.295 2.354 5.299 5.241V74.76c-.005 2.887-2.382 5.238-5.3 5.241zM30.648 40.271v34.49c.003 2.618 2.158 4.75 4.806 4.753h24.248c2.646-.003 4.802-2.135 4.805-4.754V22.786c-.003-2.617-2.158-4.75-4.805-4.754H45.428c.005.446.018.974.057 1.512h9.244l-.705 3.486h-8.32c.056.522.123 1.041.185 1.511h8.76a.763.763 0 00.75-.608l.887-4.39H59.7c1.805.002 3.275 1.456 3.278 3.242v51.972c-.001 1.786-1.471 3.24-3.276 3.243H35.454c-1.805-.002-3.275-1.456-3.278-3.241V41.193a21.894 21.894 0 01-1.527-.921z" fill="#A3AAB5"/><path d="M41.516 73.76h-6.062c-.559 0-1.01.446-1.01.999 0 .552.451.999 1.01.999h6.062c.558 0 1.01-.447 1.01-1 0-.552-.452-.998-1.01-.998z" fill="#A3AAB5"/><path d="M41.516 76.003h-6.062a1.25 1.25 0 01-1.257-1.243 1.25 1.25 0 011.257-1.243h6.062a1.25 1.25 0 011.256 1.243 1.25 1.25 0 01-1.256 1.243zm-6.062-2c-.42 0-.764.34-.764.756a.76.76 0 00.764.755h6.062c.42 0 .764-.34.764-.755a.761.761 0 00-.764-.756h-6.062zm10.104-.243h-1.01c-.559 0-1.01.446-1.01.999 0 .552.451.999 1.01.999h1.01c.558 0 1.01-.447 1.01-1 0-.552-.454-.998-1.01-.998z" fill="#A3AAB5"/><path d="M45.558 76.003h-1.01a1.25 1.25 0 01-1.257-1.243 1.25 1.25 0 011.257-1.243h1.01a1.25 1.25 0 011.256 1.243 1.25 1.25 0 01-1.256 1.243zm-1.01-2c-.42 0-.764.34-.764.756a.76.76 0 00.764.755h1.01c.42 0 .763-.34.763-.755a.761.761 0 00-.763-.756h-1.01zm11.83-23.589a12.422 12.422 0 00-4.73-2.934c1.885-1.285 3.123-3.434 3.123-5.865 0-3.925-3.227-7.118-7.195-7.118-3.968 0-7.195 3.193-7.195 7.118 0 2.43 1.238 4.582 3.124 5.865a12.434 12.434 0 00-4.73 2.934 12.164 12.164 0 00-3.645 8.705h1.945c0-5.728 4.71-10.388 10.501-10.388 5.791 0 10.501 4.66 10.501 10.388h1.945a12.151 12.151 0 00-3.644-8.705zm-8.8-3.607c-2.896 0-5.25-2.33-5.25-5.194s2.354-5.194 5.25-5.194c2.895 0 5.25 2.33 5.25 5.194 0 2.865-2.355 5.194-5.25 5.194z" fill="#A3AAB5"/><path d="M60.27 59.363h-2.437v-.244c0-5.593-4.6-10.144-10.255-10.144-5.655 0-10.255 4.55-10.255 10.144v.244h-2.437v-.244c0-3.353 1.32-6.507 3.716-8.877a12.593 12.593 0 014.389-2.835 7.338 7.338 0 01-2.855-5.792c0-4.059 3.34-7.361 7.442-7.361s7.441 3.3 7.441 7.36a7.338 7.338 0 01-2.854 5.791c1.646.63 3.12 1.581 4.388 2.835a12.402 12.402 0 013.717 8.878v.245zm-1.948-.487h1.452a11.924 11.924 0 00-3.57-8.29 12.086 12.086 0 00-4.637-2.875l-.461-.158.402-.273a6.862 6.862 0 003.017-5.665c0-3.79-3.117-6.874-6.949-6.874-3.831 0-6.949 3.084-6.949 6.874a6.865 6.865 0 003.017 5.665l.403.273-.462.158a12.1 12.1 0 00-4.635 2.876c-2.245 2.222-3.508 5.158-3.57 8.289h1.452c.131-5.75 4.9-10.389 10.744-10.389 5.845 0 10.615 4.639 10.746 10.389zM47.578 47.05c-3.03 0-5.497-2.439-5.497-5.438 0-2.999 2.465-5.438 5.497-5.438s5.497 2.44 5.497 5.438c0 3-2.465 5.438-5.497 5.438zm0-10.387c-2.76 0-5.005 2.221-5.005 4.951 0 2.73 2.246 4.95 5.005 4.95s5.004-2.22 5.004-4.95-2.245-4.95-5.004-4.95zM37.96.244H6.22C2.925.244.246 2.894.246 6.153V26.41c0 3.258 2.679 5.91 5.974 5.91h8.66a.85.85 0 00.854-.846.85.85 0 00-.854-.845H6.22c-2.352 0-4.267-1.892-4.267-4.22V6.152c0-2.327 1.913-4.221 4.267-4.221h31.742c2.351 0 4.266 1.893 4.266 4.22V26.41c0 2.327-1.913 4.221-4.266 4.221H31.72a.85.85 0 00-.854.845v4.546l-5.198-5.142a.86.86 0 00-.603-.247h-2.037a.85.85 0 00-.854.845.85.85 0 00.854.844h1.684l6.405 6.337a.858.858 0 00.93.182.844.844 0 00.527-.78v-5.74h5.387c3.293 0 5.973-2.65 5.973-5.91V6.153C43.933 2.895 41.255.245 37.96.245z" fill="#A3AAB5"/><path d="M31.72 39.147c-.293 0-.57-.114-.778-.318l-6.333-6.265h-1.581c-.606 0-1.1-.488-1.1-1.089 0-.6.492-1.088 1.1-1.088h2.036c.294 0 .57.113.777.318l4.778 4.726v-3.957c0-.6.492-1.089 1.1-1.089h6.241c2.217 0 4.02-1.784 4.02-3.977V6.153c0-2.194-1.803-3.978-4.02-3.978H6.22c-2.218 0-4.02 1.784-4.02 3.978V26.41c0 2.193 1.802 3.977 4.02 3.977h8.66c.606 0 1.1.488 1.1 1.089s-.492 1.088-1.1 1.088H6.22C2.79 32.562 0 29.803 0 26.411V6.153C0 2.76 2.79 0 6.22 0h31.742c3.427 0 6.218 2.76 6.218 6.153V26.41c0 3.392-2.79 6.153-6.22 6.153h-5.14v5.496a1.085 1.085 0 01-1.1 1.087zm-8.69-8.273a.605.605 0 00-.608.601c0 .332.272.601.607.601h1.785l6.478 6.408c.17.17.437.223.662.13a.598.598 0 00.374-.554v-5.984h5.634c3.158 0 5.727-2.54 5.727-5.665V6.153C43.687 3.028 41.119.487 37.96.487H6.22C3.06.487.493 3.028.493 6.153V26.41c0 3.124 2.568 5.665 5.727 5.665h8.66c.335 0 .607-.27.607-.6a.605.605 0 00-.607-.602H6.22c-2.489 0-4.514-2.003-4.514-4.465V6.153c0-2.462 2.025-4.465 4.514-4.465h31.742c2.488 0 4.513 2.003 4.513 4.465V26.41c0 2.461-2.025 4.465-4.513 4.465H31.72a.605.605 0 00-.608.6v5.135l-5.62-5.56a.606.606 0 00-.429-.175H23.03v-.002z" fill="#A3AAB5"/><path d="M19.212 30.877a.863.863 0 00-1.205 0 .845.845 0 00-.25.597.849.849 0 00.853.843.845.845 0 00.852-.843.852.852 0 00-.25-.597z" fill="#A3AAB5"/><path d="M18.608 32.562c-.289 0-.573-.117-.777-.318a1.087 1.087 0 01-.322-.769c0-.286.117-.567.322-.768a1.111 1.111 0 011.554 0c.205.203.322.482.322.768a1.091 1.091 0 01-1.099 1.087zm0-1.688a.6.6 0 00-.429 1.024.613.613 0 00.858 0 .6.6 0 00.177-.424.606.606 0 00-.606-.6z" fill="#A3AAB5"/><path d="M38.857 7.115a.859.859 0 00-.844-.015l-8.294 4.494v-.353c0-2.154-1.773-3.907-3.95-3.907H8.754c-2.178 0-3.95 1.753-3.95 3.907V21.32c0 2.155 1.772 3.908 3.95 3.908h17.015c2.178 0 3.95-1.753 3.95-3.908v-.352l8.294 4.494a.857.857 0 001.264-.741V7.84a.846.846 0 00-.42-.725zM28.012 13.02v8.301c0 1.223-1.007 2.22-2.243 2.22H8.754c-1.237 0-2.244-.997-2.244-2.22v-.143h6.438a.85.85 0 00.854-.845.85.85 0 00-.854-.845H6.51v-8.247c0-1.223 1.007-2.22 2.244-2.22h17.015c1.236 0 2.243.997 2.243 2.22v1.78zm9.557 10.277l-7.85-4.256v-5.524l7.85-4.255v14.035z" fill="#26B1FF"/><path d="M38.423 25.81c-.184 0-.366-.046-.529-.133l-7.929-4.298c-.031 2.264-1.902 4.093-4.196 4.093H8.754c-2.314 0-4.196-1.862-4.196-4.151V11.24c0-2.289 1.882-4.15 4.196-4.15h17.015c2.294 0 4.165 1.83 4.196 4.092l7.93-4.298c.34-.183.756-.177 1.088.018.332.195.539.554.539.936V24.72a1.092 1.092 0 01-1.099 1.089zm-8.95-5.253l8.658 4.692c.184.1.42.096.601-.01a.6.6 0 00.297-.516V7.841a.6.6 0 00-.297-.517.614.614 0 00-.601-.01l-8.659 4.693v-.764c0-2.021-1.662-3.664-3.703-3.664H8.754c-2.043 0-3.704 1.644-3.704 3.664V21.32c0 2.021 1.662 3.664 3.704 3.664h17.015c2.043 0 3.703-1.645 3.703-3.664v-.764zm-3.704 3.227H8.754c-1.373 0-2.49-1.105-2.49-2.463v-.387h6.684c.335 0 .608-.27.608-.6a.605.605 0 00-.608-.602H6.264v-8.49c0-1.359 1.117-2.464 2.49-2.464h17.015c1.373 0 2.49 1.105 2.49 2.463V21.32c0 1.36-1.117 2.465-2.49 2.465zM6.76 21.42a1.992 1.992 0 001.995 1.877H25.77a1.989 1.989 0 001.997-1.976V11.24c0-1.09-.896-1.975-1.997-1.975H8.754a1.989 1.989 0 00-1.997 1.975v8.003h6.191c.607 0 1.1.488 1.1 1.09 0 .6-.492 1.088-1.1 1.088H6.76v-.002zm31.056 2.29l-8.344-4.522v-5.813l8.343-4.522v14.856zm-7.851-4.812l7.358 3.988V9.675l-7.358 3.988v5.234z" fill="#26B1FF"/><path d="M15.915 19.488h-.009a.846.846 0 00-.849.845c0 .466.386.845.857.845a.85.85 0 00.855-.845.851.851 0 00-.854-.845z" fill="#26B1FF"/><path d="M15.915 21.42c-.61 0-1.104-.487-1.104-1.089 0-.6.491-1.088 1.095-1.088h.009c.606 0 1.1.487 1.1 1.088 0 .602-.494 1.089-1.1 1.089zm-.009-1.688a.603.603 0 00-.602.601c0 .332.274.601.61.601.336 0 .608-.27.608-.6a.605.605 0 00-.607-.602h-.009z" fill="#26B1FF"/></g><defs><clipPath id="clip0"><path fill="#fff" d="M0 0h65v80H0z"/></clipPath></defs></svg>