<svg width="55" height="85" fill="none" xmlns="http://www.w3.org/2000/svg"><g clip-path="url(#clip0)"><path d="M23.802 47.002c.805 0 1.457-.657 1.457-1.466 0-.808-.652-1.465-1.457-1.465h-4.983a1.46 1.46 0 00-1.457 1.465c0 .81.652 1.466 1.457 1.466h4.983z" fill="#A3AAB5"/><path d="M32.043 77.81V1.466c0-.454-.211-.884-.57-1.162A1.451 1.451 0 0030.21.05L1.082 7.866A1.464 1.464 0 000 9.282v4.737c0 .81.652 1.466 1.457 1.466s1.457-.658 1.457-1.466v-3.61l26.214-7.033v78.369L2.915 76.471V18.963a1.46 1.46 0 00-1.456-1.466 1.46 1.46 0 00-1.457 1.466v58.71c0 .699.49 1.301 1.171 1.437l29.13 5.862a1.458 1.458 0 001.742-1.438v-2.79l-.002-2.934z" fill="#26B1FF"/><path d="M53.541 4.258H34.61v2.934h17.476v70.62h-2.08a1.46 1.46 0 00-1.456 1.466c0 .81.651 1.465 1.457 1.465h3.535a1.46 1.46 0 001.457-1.465V5.724a1.46 1.46 0 00-1.456-1.466zm-8.066 76.485a1.46 1.46 0 001.457-1.466 1.46 1.46 0 00-1.457-1.466H34.61v2.934h10.865v-.002z" fill="#A3AAB5"/><path d="M45.011 14.307v56.386H34.61v2.933h11.86a1.46 1.46 0 001.456-1.466V12.841a1.46 1.46 0 00-1.457-1.466h-11.86v2.934h10.403v-.002z" fill="#A3AAB5"/></g><defs><clipPath id="clip0"><path fill="#fff" d="M0 0h55v85H0z"/></clipPath></defs></svg>