<svg width="29" height="27" fill="none" xmlns="http://www.w3.org/2000/svg"><g clip-path="url(#clip0)"><path d="M9.043 10.935l-1.96 1.89 6.3 6.075 14-13.5-1.96-1.89-12.04 11.61-4.34-4.185z" fill="#26B1FF"/><path d="M25.983 13.5c0 5.94-5.04 10.8-11.2 10.8-6.16 0-11.2-4.86-11.2-10.8s5.04-10.8 11.2-10.8c1.12 0 2.1.135 3.08.405l2.24-2.16c-1.68-.54-3.5-.945-5.32-.945-7.7 0-14 6.075-14 13.5s6.3 13.5 14 13.5 14-6.075 14-13.5h-2.8z" fill="#fff"/></g><defs><clipPath id="clip0"><path fill="#fff" transform="translate(.783)" d="M0 0h28v27H0z"/></clipPath></defs></svg>