<svg width="27" height="27" fill="none" xmlns="http://www.w3.org/2000/svg"><path d="M5.642 16.726c.553-.576 1.22-.884 1.926-.884.7 0 1.373.302 1.949.878l1.8 1.795c.149-.08.297-.154.44-.228.205-.103.398-.2.564-.302 1.686-1.071 3.22-2.467 4.69-4.274.712-.9 1.19-1.658 1.538-2.428-.467-.427-.9-.871-1.322-1.299-.16-.16-.32-.325-.479-.484-1.196-1.197-1.196-2.747 0-3.944l1.556-1.555c.177-.177.359-.36.53-.542.342-.353.7-.718 1.071-1.06.553-.547 1.214-.837 1.91-.837.694 0 1.367.29 1.937.837l.011.012 1.938 1.954a4.17 4.17 0 011.236 2.65c.137 1.664-.353 3.214-.73 4.229-.922 2.49-2.301 4.798-4.358 7.27-2.496 2.981-5.5 5.335-8.93 6.993-1.31.621-3.06 1.356-5.015 1.482-.12.005-.245.011-.359.011-1.316 0-2.422-.473-3.288-1.413-.006-.012-.017-.017-.023-.029-.296-.359-.638-.683-.997-1.031a22.541 22.541 0 01-.74-.735c-.565-.587-.861-1.271-.861-1.972 0-.707.302-1.385.877-1.954l3.129-3.14zm-2.04 6c.006 0 .006.006 0 0 .222.24.45.456.695.695.37.354.747.724 1.1 1.14.575.616 1.254.906 2.143.906.085 0 .176 0 .262-.006 1.692-.108 3.265-.769 4.444-1.333 3.226-1.561 6.058-3.778 8.411-6.587 1.944-2.343 3.243-4.508 4.104-6.833.53-1.419.723-2.525.638-3.567a2.616 2.616 0 00-.787-1.693L22.67 3.505c-.28-.262-.575-.405-.866-.405-.36 0-.65.217-.832.4l-.017.016c-.348.325-.678.661-1.026 1.02-.177.183-.359.365-.541.553L17.83 6.645c-.604.604-.604 1.162 0 1.766.165.166.325.33.49.49.479.49.935.946 1.43 1.39.012.012.023.018.029.03.49.49.399.968.296 1.293l-.017.051c-.404.98-.974 1.904-1.84 3.003l-.006.006c-1.573 1.938-3.231 3.448-5.06 4.605-.234.148-.473.267-.701.381-.206.103-.4.2-.565.302-.022.012-.045.029-.068.04a1.235 1.235 0 01-.564.143c-.473 0-.77-.297-.866-.393l-1.95-1.95c-.193-.193-.5-.427-.86-.427-.353 0-.644.222-.82.416l-.012.012-3.14 3.14c-.586.58-.586 1.18-.005 1.783zm8.787-16.303a7.226 7.226 0 00-3.932 2.04 7.264 7.264 0 00-2.04 3.932.765.765 0 01-.758.638c-.046 0-.085-.006-.131-.011a.77.77 0 01-.633-.89 8.79 8.79 0 012.468-4.758 8.79 8.79 0 014.758-2.467.773.773 0 01.89.627c.073.416-.2.82-.622.889zM.012 11.91a14.46 14.46 0 014.063-7.835A14.46 14.46 0 0111.91.012c.416-.074.81.21.883.627a.773.773 0 01-.632.889 12.948 12.948 0 00-7.003 3.63 12.91 12.91 0 00-3.63 7.003.765.765 0 01-.758.638.755.755 0 01-.758-.889z" fill="#fff"/></svg>