<svg width="317" height="303" fill="none" xmlns="http://www.w3.org/2000/svg"><g clip-path="url(#clip0)"><path d="M58.998 262.078L.395 110.123l149.481-57.7 58.603 151.955-4.098 1.581-145.383 56.119zM11.752 115.159L64.03 250.717l133.091-51.373-52.279-135.56-133.09 51.376z" fill="#26B1FF"/><path d="M184.726 109.473l5.913 27.975 1.134 5.369c1.51 3.914 13.036 58.698 8.707 60.37l-86.705-20.898-55.635 82.063c-4.328 1.67-30.276-52.055-31.785-55.969l-2.827-6.429-11.34-25.792 8.142-15.274 46.174-86.625c2.063-3.161 6.115-4.724 9.766-3.77l92.3 33.174 16.156 5.806z" fill="#606276"/><path d="M147.367 57.999L6.077 112.54l55.445 143.762 141.292-54.542-55.447-143.762z" fill="#fff"/><path d="M125.114 211.659L12.189 176.162 57.322 293.19l172.567-66.612-45.133-117.028-59.642 102.109z" fill="#9CD3F2"/><path d="M12.188 176.162L57.322 293.19l50.854-86.856-95.987-30.172zm172.568-66.612l45.133 117.028-95.988-30.174 50.855-86.854z" fill="#26B1FF"/><path d="M219.688 222.356a1.277 1.277 0 01.732-1.651l-.411-1.066a1.278 1.278 0 01-.918-2.384l-.411-1.066a1.277 1.277 0 11-.919-2.384l-.411-1.066a1.278 1.278 0 01-.918-2.384l-.411-1.066a1.276 1.276 0 11-.919-2.383l-.356-.924-.923.357.007.017a1.277 1.277 0 11-2.383.918l-.005-.017-1.068.413c.002.005.006.01.008.017a1.277 1.277 0 01-2.383.919l-.005-.017-1.067.412.007.017a1.276 1.276 0 11-2.382.919c-.002-.005-.003-.012-.006-.017l-1.067.412.007.017a1.277 1.277 0 11-2.383.919l-.005-.017-1.067.412.008.017a1.278 1.278 0 01-2.383.919l-.005-.017-.924.356.356.924a1.276 1.276 0 11.919 2.383l.411 1.066a1.276 1.276 0 11.918 2.384l.411 1.066a1.277 1.277 0 01.919 2.384l.411 1.066a1.277 1.277 0 01.918 2.384l.411 1.066a1.277 1.277 0 11.919 2.384l.356.923.922-.356a1.277 1.277 0 012.383-.919l1.066-.411a1.277 1.277 0 112.382-.919l1.066-.411a1.278 1.278 0 112.383-.919l1.065-.412a1.277 1.277 0 012.383-.919l1.066-.411a1.276 1.276 0 112.382-.919l.923-.356-.356-.923a1.283 1.283 0 01-1.653-.737zm-27.048 10.441a1.276 1.276 0 01.732-1.651l-.411-1.066a1.277 1.277 0 01-.919-2.384l-.411-1.066a1.275 1.275 0 01-1.65-.733 1.276 1.276 0 01.732-1.651l-.412-1.066a1.278 1.278 0 01-.918-2.384l-.411-1.066a1.277 1.277 0 11-.919-2.384l-.355-.923-.924.356.007.017a1.276 1.276 0 11-2.382.919c-.003-.005-.004-.011-.006-.017l-1.067.413a1.278 1.278 0 11-2.375.935l-.005-.017-1.068.413.008.017a1.277 1.277 0 01-2.383.919l-.005-.017-1.068.412.007.017a1.277 1.277 0 11-2.382.919c-.003-.005-.004-.012-.006-.017l-1.067.412a1.277 1.277 0 11-2.375.936l-.005-.017-.924.356.356.923a1.277 1.277 0 01.919 2.384l.411 1.066a1.275 1.275 0 011.65.733 1.276 1.276 0 01-.732 1.651l.411 1.066a1.277 1.277 0 11.919 2.384l.411 1.066a1.277 1.277 0 01.918 2.384l.411 1.066a1.276 1.276 0 11.919 2.383l.356.924.923-.356a1.277 1.277 0 112.382-.919l1.066-.412a1.277 1.277 0 112.382-.919l1.066-.411a1.277 1.277 0 112.383-.919l1.066-.411a1.276 1.276 0 112.382-.919l1.066-.411a1.277 1.277 0 112.382-.919l.923-.356-.356-.923a1.283 1.283 0 01-1.652-.737z" fill="#fff"/><path d="M100.87 129.1l-53.049 20.479a3.265 3.265 0 01-2.36 0 3.263 3.263 0 01-1.877-1.878l-6.21-16.101a3.279 3.279 0 011.878-4.238l53.05-20.48a3.266 3.266 0 012.696.153c.681.356 1.24.952 1.54 1.725l6.21 16.102a3.278 3.278 0 01-1.878 4.238zm52.598 12.016l-19.172 7.401a3.262 3.262 0 01-2.484-.053 3.263 3.263 0 01-1.751-1.825l-6.139-15.917a3.278 3.278 0 011.877-4.239l19.171-7.4a3.271 3.271 0 012.443.034 3.261 3.261 0 011.793 1.845l6.14 15.916a3.28 3.28 0 01-1.878 4.238z" fill="#26B1FF"/><path d="M139.433 97.208l-27.482 10.609a2.763 2.763 0 11-1.989-5.157l27.482-10.61a2.762 2.762 0 013.572 1.584 2.765 2.765 0 01-1.583 3.574zm5.025 13.029l-27.482 10.609a2.763 2.763 0 11-1.989-5.157l27.482-10.61a2.764 2.764 0 011.989 5.158zm-32.232 29.622l-59.8 23.085a2.763 2.763 0 11-1.99-5.157l59.8-23.085a2.764 2.764 0 011.99 5.157zm5.025 13.029L57.45 175.973a2.763 2.763 0 11-1.99-5.157l59.801-23.085a2.764 2.764 0 011.99 5.157zm37.719.408l-92.494 35.707a2.763 2.763 0 11-1.99-5.157l92.494-35.706a2.763 2.763 0 011.99 5.156zm-58.433-44.575l6.211 16.102a3.28 3.28 0 01-1.878 4.238L47.821 149.54a3.248 3.248 0 01-1.89.141l24.13-21.489 24.132-21.49a3.27 3.27 0 012.344 2.019zm58.809 28.157a3.28 3.28 0 01-1.878 4.238l-19.171 7.401a3.249 3.249 0 01-2.419-.027l7.757-14.69 7.756-14.691a3.261 3.261 0 011.815 1.853l6.14 15.916zm7.153-74.711a1.327 1.327 0 01-1.236-.848l-4.969-12.886a1.325 1.325 0 012.47-.954l4.97 12.886a1.325 1.325 0 01-1.235 1.802z" fill="#9CD3F2"/><path d="M133.477 50.997a1.325 1.325 0 01-.478-2.56l12.299-4.749a1.324 1.324 0 11.953 2.472l-12.298 4.748c-.156.06-.317.09-.476.09z" fill="#76799B"/><path d="M60.297 303a1.325 1.325 0 01-.477-2.561l17.815-6.877a1.324 1.324 0 11.954 2.471l-17.816 6.878c-.156.06-.317.089-.476.089z" fill="#9CD3F2"/><path d="M49.794 300.613a1.323 1.323 0 01-1.236-.848l-4.471-11.594a1.324 1.324 0 012.47-.954l4.472 11.594a1.325 1.325 0 01-1.236 1.802z" fill="#26B1FF"/><path d="M310.924 44.294L243.67 23.117c.088 3.538-.673 6.844-2.286 9.917-1.068 3.284-2.893 6.125-5.474 8.524-2.398 2.583-5.238 4.408-8.52 5.476-3.155 1.659-6.555 2.419-10.2 2.281a26.55 26.55 0 01-7.917-1.206l-41.969 133.413a8.12 8.12 0 004.016 9.648l-.008.026.149.047c.365.179.748.333 1.148.459l83.658 26.341c.399.126.801.219 1.202.281l.15.046.008-.026a8.116 8.116 0 008.816-5.608l49.786-158.263c1.344-4.276-1.03-8.835-5.305-10.18z" fill="#606276"/><path d="M260.147 196.906l-78.621-24.756a4.03 4.03 0 01-2.633-5.054l43.773-139.145a4.028 4.028 0 015.052-2.635l78.621 24.756a4.032 4.032 0 012.634 5.054l-43.772 139.146a4.032 4.032 0 01-5.054 2.634z" fill="#fff"/><path d="M221.765 199.185a6.2 6.2 0 000-8.765 6.193 6.193 0 00-8.762 0 6.2 6.2 0 000 8.765 6.193 6.193 0 008.762 0z" fill="#26B1FF"/><path d="M217.395 201.451c-.67 0-1.344-.102-2.002-.309-3.494-1.1-5.441-4.838-4.342-8.334 1.098-3.495 4.837-5.443 8.33-4.344a6.598 6.598 0 013.896 3.267 6.604 6.604 0 01.446 5.067 6.606 6.606 0 01-3.266 3.898 6.612 6.612 0 01-3.062.755zm-.004-12.401a5.76 5.76 0 00-5.487 4.025 5.714 5.714 0 00.385 4.385 5.712 5.712 0 003.372 2.828 5.754 5.754 0 007.209-3.76 5.757 5.757 0 00-5.479-7.478z" fill="#9CD3F2"/><path d="M275.854 49.075l-22.576-7.109a1.747 1.747 0 011.049-3.332l22.576 7.108a1.747 1.747 0 01-1.049 3.333z" fill="#26B1FF"/><path d="M243.933 124.051l-28.679-9.03a5.307 5.307 0 01-3.466-6.654l14.388-45.736a5.303 5.303 0 016.651-3.468l28.678 9.03a5.307 5.307 0 013.467 6.654l-14.388 45.736a5.303 5.303 0 01-6.651 3.468z" fill="#606276"/><path d="M279.473 103.066L265.086 148.8a5.304 5.304 0 01-6.651 3.469l-28.679-9.03a5.297 5.297 0 01-3.164-2.712 5.296 5.296 0 01-.304-3.942l14.388-45.736a5.303 5.303 0 016.651-3.468l28.68 9.03a5.281 5.281 0 012.922 2.277 5.298 5.298 0 01.544 4.378z" fill="#26B1FF"/><path d="M250.029 173.742l-46.948-14.782a4.078 4.078 0 012.448-7.78l46.948 14.782a4.078 4.078 0 01-2.448 7.78zm28.9-75.054l-52.334 41.839h-.003a5.296 5.296 0 01-.304-3.942l14.388-45.736a5.303 5.303 0 016.651-3.468l28.68 9.03a5.28 5.28 0 012.922 2.277z" fill="#9CD3F2"/><path d="M260.022 153.869a6.658 6.658 0 01-1.995-.307l-28.678-9.03c-3.503-1.102-5.455-4.85-4.352-8.354l14.387-45.736c1.102-3.503 4.848-5.457 8.35-4.353l28.679 9.03c3.503 1.102 5.455 4.85 4.352 8.354l-14.387 45.735a6.673 6.673 0 01-6.356 4.661zm-1.181-2.894a3.954 3.954 0 004.952-2.582l14.387-45.736a3.955 3.955 0 00-2.58-4.953l-28.679-9.03a3.953 3.953 0 00-4.952 2.581l-14.388 45.736a3.957 3.957 0 002.581 4.954l28.679 9.03z" fill="#fff"/></g><g clip-path="url(#clip1)"><path d="M205.969 19.06l-3.526 3.293 11.332 10.589 25.181-23.53-3.525-3.294-21.656 20.236-7.806-7.295z" fill="#26B1FF"/><path d="M236.438 23.53c0 10.353-9.065 18.824-20.145 18.824s-20.145-8.47-20.145-18.824c0-10.353 9.065-18.824 20.145-18.824 2.015 0 3.777.235 5.54.706l4.029-3.765C222.84.706 219.567 0 216.293 0c-13.85 0-25.181 10.588-25.181 23.53 0 12.941 11.331 23.53 25.181 23.53 13.85 0 25.181-10.589 25.181-23.53h-5.036z" fill="#606276"/></g><defs><clipPath id="clip0"><path fill="#fff" transform="translate(.395 23.117)" d="M0 0h316.21v279.883H0z"/></clipPath><clipPath id="clip1"><path fill="#fff" transform="translate(191.112)" d="M0 0h50.362v47.06H0z"/></clipPath></defs></svg>