<svg width="35" height="56" fill="none" xmlns="http://www.w3.org/2000/svg"><path d="M16.745 27.07L29.63 14.383a1.314 1.314 0 011.86 0l.776.776a1.314 1.314 0 010 1.86L21.076 28l11.179 10.981a1.314 1.314 0 010 1.86l-.777.776a1.314 1.314 0 01-1.86 0L16.735 28.93a1.324 1.324 0 01.011-1.86zm-14 1.86L15.63 41.617a1.314 1.314 0 001.86 0l.776-.776a1.314 1.314 0 000-1.86L7.076 28l11.179-10.981a1.314 1.314 0 000-1.86l-.777-.776a1.314 1.314 0 00-1.86 0L2.735 27.07a1.324 1.324 0 00.011 1.86z" fill="#EDF0F6"/></svg>